<svg width="160" height="105" viewBox="0 0 160 105" fill="none" xmlns="http://www.w3.org/2000/svg">
<g id="Group">
<path id="Vector" d="M83.987 7.99396C42.0035 7.99396 7.9741 20.1315 7.9741 54.8588C7.9741 73.0452 17.3569 85.0562 32.3482 92.3574C27.4043 97.9398 21.3573 101.65 14.885 104.328C28.7731 105.661 40.9735 103.975 49.7582 98.3062C60.0448 100.664 71.6737 101.717 83.987 101.717C125.97 101.717 160 91.6512 160 54.8521C160 24.0752 125.964 7.98729 83.987 7.98729V7.99396Z" fill="#CCE198"/>
<path id="Vector_2" d="M76.0129 0C34.036 0 0 12.1376 0 46.8648C0 65.0512 9.38283 77.0622 24.3741 84.3634C19.4302 89.9459 13.3832 93.6564 6.91086 96.3344C20.799 97.6667 32.9994 95.9813 41.7841 90.3123C52.0707 92.6705 63.6996 93.723 76.0129 93.723C117.996 93.723 152.026 83.6572 152.026 46.8582C152.026 16.0946 117.996 0 76.0129 0Z" fill="white"/>
</g>
</svg>
