<svg width="196" height="163" viewBox="0 0 196 163" fill="none" xmlns="http://www.w3.org/2000/svg">
<g id="_&#231;&#185;&#157;&#239;&#189;&#172;&#231;&#185;&#167;&#239;&#189;&#164;&#231;&#185;&#157;&#239;&#189;&#164;&#231;&#185;&#157;&#239;&#189;&#188;_1" clip-path="url(#clip0_116_770)">
<path id="Vector" d="M78.1211 51.352C78.1211 51.352 78.1494 51.345 78.1636 51.3379C78.1848 51.3238 78.2061 51.3168 78.2344 51.3027C78.199 51.3238 78.1565 51.3379 78.1211 51.352Z" fill="#DB9B63"/>
<path id="Vector_2" d="M78.122 51.3517H78.1079C78.0656 51.3658 78.0162 51.3939 77.988 51.4079C78.0162 51.3939 78.0445 51.3798 78.0727 51.3658C78.0868 51.3588 78.1079 51.3517 78.122 51.3447V51.3517Z" fill="#DB9B63"/>
<path id="Vector_3" d="M88.5565 84.7221C88.5846 84.8058 88.6196 84.8894 88.6547 84.973C88.6617 84.9939 88.6967 85.0845 88.7247 85.1473C88.7528 85.203 88.7878 85.2867 88.7948 85.3006C88.8299 85.3703 88.8579 85.44 88.8929 85.5166C88.984 85.6979 89.0752 85.8791 89.1663 86.0603C89.3485 86.3948 89.5447 86.7224 89.762 87.043C89.825 87.1336 90.0002 87.3566 89.9862 87.3427C90.0493 87.4193 90.1194 87.503 90.1824 87.5727C90.3577 87.7678 90.5469 87.956 90.7501 88.1372C90.8973 88.2626 91.1706 88.4229 90.8482 88.2278C90.9604 88.2975 91.0585 88.3811 91.1706 88.4508C91.2757 88.5205 91.3879 88.5832 91.5 88.639C91.528 88.6529 91.6191 88.6948 91.6892 88.7296C91.7523 88.7505 91.8224 88.7784 91.8504 88.7854C91.9626 88.8202 92.0817 88.8481 92.1938 88.876C92.2429 88.8899 92.2779 88.8969 92.306 88.9108C92.3971 88.9108 92.5022 88.9108 92.5232 88.9108C92.6424 88.9108 92.7755 88.8899 92.8876 88.8969C92.8876 88.8969 92.8946 88.8969 92.9017 88.8969C93.1049 88.8481 93.3081 88.7714 93.5114 88.7157C93.5534 88.6948 93.5885 88.6738 93.6305 88.6599C93.7497 88.5972 93.8618 88.5345 93.9739 88.4648C94.072 88.402 94.1702 88.3323 94.2683 88.2696C94.2753 88.2696 94.2823 88.2696 94.2893 88.2557C94.3033 88.2417 94.3173 88.2278 94.3454 88.1999C94.5906 87.9769 94.8289 87.7608 95.0462 87.5099C95.0742 87.4751 95.2004 87.3357 95.2634 87.259C95.3125 87.1893 95.4667 86.9872 95.4877 86.9524C96.0203 86.1927 96.4058 85.4679 96.7282 84.7221C94.002 84.7221 91.2757 84.7221 88.5565 84.7291V84.7221Z" fill="#FFB496"/>
<path id="Vector_4" d="M81.5833 50.9125C81.5833 50.9125 81.6112 50.9124 81.6252 50.9194C81.6252 50.9194 81.6322 50.9194 81.6392 50.9194C81.6182 50.9194 81.6042 50.9194 81.5833 50.9055V50.9125Z" fill="#DB9B63"/>
<path id="Vector_5" d="M79.8453 50.8846C79.8809 50.8846 79.8952 50.8776 79.8453 50.8846V50.8846Z" fill="#DB9B63"/>
<path id="Vector_6" d="M81.6464 50.926C81.6746 50.926 81.7028 50.933 81.7239 50.9401C81.8085 50.9541 81.8367 50.9401 81.6464 50.926Z" fill="#DB9B63"/>
<path id="Vector_7" d="M8.30479 120.245C7.42876 118.085 7.05031 115.694 6.81904 113.387C6.65084 111.742 6.58076 109.951 6.83305 108.244C6.13924 108.132 5.45243 108.237 4.82168 108.592C4.51332 108.766 4.29606 108.92 4.05778 109.192C4.06479 109.192 3.98069 109.31 3.91762 109.394C3.93163 109.408 3.74942 109.84 3.72839 109.916C3.16073 111.986 3.77044 114.182 3.9877 116.259C4.07881 117.116 4.10684 117.66 4.25401 118.377C4.33111 118.775 4.42922 119.172 4.56939 119.548C4.47828 119.311 4.96185 120.21 4.79365 119.994C5.06697 120.343 5.03894 120.315 5.38935 120.475C5.1721 120.378 5.78882 120.58 5.86591 120.594C6.09719 120.629 6.33547 120.615 6.56674 120.608C7.06433 120.594 7.74413 120.538 8.19266 120.308C8.24171 120.28 8.27676 120.273 8.30479 120.266C8.30479 120.266 8.30479 120.259 8.30479 120.252V120.245Z" fill="#FFEFDD"/>
<path id="Vector_8" d="M6.37788 142.367C6.36381 142.269 6.34271 142.185 6.30755 142.172C6.26535 142.151 6.26535 142.192 6.27239 142.248C6.29348 142.29 6.31458 142.325 6.33568 142.36C6.33568 142.339 6.35678 142.332 6.37788 142.36V142.367Z" fill="#DB9B63"/>
<path id="Vector_9" d="M15.4252 119.653C15.0958 119.214 14.8365 118.705 14.6333 118.12C14.1287 116.642 14.1217 114.99 14.0025 113.45C13.8764 111.826 13.7292 110.195 13.6381 108.571C13.589 107.63 13.5961 106.697 13.6802 105.77C12.8181 105.77 11.9701 105.853 11.2903 106.334C10.6736 106.773 10.4283 107.86 10.3092 108.739C9.9868 111.025 10.2391 113.513 10.6946 115.799C10.9049 116.83 11.1572 117.862 11.5146 118.858C11.5286 118.9 11.6337 119.151 11.6758 119.249C11.7459 119.381 11.886 119.632 11.879 119.688C12.0052 119.778 12.1313 119.876 12.2435 119.98C12.1173 119.883 12.1453 119.89 12.3135 120.001C12.3906 120.036 12.4327 120.057 12.4537 120.071C12.5378 120.099 12.6289 120.134 12.72 120.155C13.3578 120.322 14.0306 120.28 14.8505 119.974C14.8365 119.974 15.222 119.785 15.271 119.757C15.3411 119.709 15.3761 119.688 15.3972 119.674C15.4112 119.667 15.4182 119.653 15.4322 119.646L15.4252 119.653Z" fill="#FFEFDD"/>
<path id="Vector_10" d="M156.852 161.958L156.607 161.017C155.864 161.08 155.1 160.724 154.869 159.783C153.404 153.929 152.675 147.907 151.007 142.102C150.32 139.711 149.493 137.376 148.281 135.209C147.188 133.264 145.786 131.466 143.999 130.267C142.604 129.333 141.09 128.553 139.647 127.696C137.986 126.713 136.332 125.723 134.678 124.733C132.884 123.667 131.09 122.615 129.275 121.583C131.601 134.512 134.18 147.391 136.479 160.327C136.584 160.919 136.451 161.519 136.094 161.944H156.859L156.852 161.958Z" fill="#CCE198"/>
<path id="Vector_11" d="M29.3085 159.818C29.3085 159.686 29.3085 159.547 29.3085 159.414C29.2385 154.18 29.1263 148.925 29.3085 143.691C29.4417 139.879 30.7733 136.22 32.1259 132.686C33.114 130.093 34.1793 127.529 35.1184 124.922C35.5599 123.681 36.0365 122.42 36.2747 121.117C36.492 119.925 36.464 118.677 36.3799 117.472C36.2047 114.886 35.658 112.335 35.4057 109.756C35.1324 106.996 35.3216 104.188 35.3146 101.421C35.3146 96.075 35.1885 90.7224 35.0553 85.3768C35.0203 84.0456 34.9992 82.7144 34.9572 81.3763C34.9292 80.519 34.9011 80.0799 34.6068 79.2227C34.5717 79.1112 34.3755 78.7418 34.2914 78.6582C34.2353 78.6024 34.2213 78.5745 34.2143 78.5676C34.2143 78.5676 34.1863 78.5676 34.0952 78.5188C34.3054 78.6303 33.8849 78.5188 34.0812 78.5188C33.6957 78.5257 33.2402 78.5745 32.9598 78.7069C32.7005 78.8324 32.4763 79.0345 32.3922 79.146C31.9296 79.7524 31.8666 80.4284 31.7965 81.0487C31.7124 81.8432 31.6423 82.6308 31.5792 83.4253C31.4391 85.2653 31.3409 87.1122 31.2638 88.9591C31.0326 94.3884 30.9345 99.8246 30.9345 105.261C30.9345 106.564 29.7641 107.101 28.7759 106.899C28.1452 107.003 27.4584 106.808 27.0098 106.139C25.7483 104.243 23.73 101.602 21.3121 101.232C18.9994 100.877 17.6608 103.184 17.2684 105.108C16.96 106.613 17.1142 108.216 17.2263 109.728C17.3525 111.422 17.4856 113.116 17.6188 114.809C17.6678 115.429 17.7099 116.036 17.857 116.642C17.9131 116.858 17.9622 117.095 18.0533 117.304C18.1164 117.444 18.1934 117.569 18.2705 117.702C18.2916 117.715 18.3126 117.729 18.3476 117.75C18.691 117.925 19.1045 118.022 19.504 118.071C19.8124 118.106 20.1628 118.113 20.4711 118.071C20.359 118.085 21.0808 117.904 20.7795 118.036C20.8706 118.001 20.9617 117.966 21.0528 117.938C20.0787 115.701 18.9573 113.29 18.7191 110.795C18.4528 107.979 20.4641 105.163 23.5267 105.428C26.1969 105.658 27.8718 108.3 29.1614 110.342C31.3339 113.778 33.2752 117.346 35.5599 120.712C36.8284 122.58 33.7868 124.323 32.5323 122.469C30.1846 119.012 28.2153 115.339 25.9586 111.826C25.2788 110.774 24.9284 110.174 24.0523 109.359C23.9823 109.296 23.9122 109.234 23.8421 109.178C23.793 109.143 23.716 109.087 23.6879 109.073C23.6038 109.024 23.4917 108.976 23.4426 108.955C23.3515 108.941 23.2674 108.927 23.2254 108.92C23.0432 108.948 22.903 108.976 23.2254 108.871C23.1553 108.892 22.8609 108.983 22.8119 108.99C22.7628 109.017 22.6717 109.059 22.6016 109.094C22.5596 109.129 22.5105 109.171 22.4685 109.213C22.5316 109.171 22.2723 109.638 22.2863 109.519C22.2652 109.589 22.2372 109.659 22.2232 109.728C22.2162 109.777 22.2092 109.812 22.2022 109.84C22.1741 110.16 22.1882 110.481 22.2162 110.795C22.2302 110.969 22.2652 111.122 22.3423 111.471C22.4825 112.091 22.6717 112.697 22.889 113.29C23.8842 116.092 25.6362 118.761 25.7834 121.814C25.9796 125.835 23.716 129.403 22.3353 133.034C21.9989 133.92 21.1649 134.519 20.1768 134.254C19.3218 134.024 18.6209 132.993 18.9503 132.108C19.8194 129.828 20.9827 127.654 21.7186 125.326C22.1741 123.89 22.3423 122.552 22.1321 121.186C20.9407 121.604 19.6792 121.653 18.4317 121.409C17.5417 122.733 15.7686 123.493 14.0866 123.674C12.9302 123.8 11.7248 123.612 10.6806 123.082C10.6105 123.047 10.5404 122.998 10.4774 122.957C8.93554 124.051 6.45461 124.267 4.79366 123.897C4.54837 125.514 4.19095 127.11 4.0648 128.741C3.8966 130.888 4.17693 132.609 5.29825 134.463C6.33547 136.171 7.58995 137.739 8.63418 139.446C9.26493 140.478 9.76952 141.342 9.8396 142.548C9.95173 144.506 9.80456 146.5 9.72046 148.458C9.55927 152.187 9.33501 155.922 9.08972 159.651C9.02664 160.592 8.33984 161.394 7.33765 161.394C7.10638 161.394 6.87511 161.338 6.65785 161.247L6.58777 161.951H30.4439L30.3528 161.352C29.7711 161.122 29.3085 160.613 29.2945 159.804L29.3085 159.818Z" fill="#FFEFDD"/>
<path id="Vector_12" d="M42.7224 125.954C41.6361 126.574 40.6059 125.919 40.2415 125.027C39.6458 125.305 39.0431 125.605 38.4474 125.919C38.3703 126.142 38.2862 126.365 38.2091 126.588C37.2139 129.292 36.0996 131.947 35.0974 134.645C34.6139 135.948 34.1513 137.265 33.7589 138.603C33.5626 139.272 33.3804 139.941 33.2192 140.617C33.0861 141.189 33.044 141.837 32.8688 142.395C32.8688 142.43 32.8688 142.457 32.8618 142.492C32.8478 142.687 32.8338 142.883 32.8268 143.078C32.7987 143.628 32.7847 144.186 32.7707 144.743C32.6656 149.768 32.7357 154.794 32.8057 159.819C32.8268 161.254 31.3971 161.77 30.3599 161.366L30.451 161.965H42.9537C42.5823 161.54 42.4421 160.934 42.5612 160.348C42.8906 158.724 43.22 157.1 43.5494 155.484C44.9861 148.409 46.4158 141.342 47.8525 134.268C48.6514 130.337 49.4433 126.414 50.2423 122.483C47.6562 123.472 45.1263 124.595 42.7224 125.961V125.954Z" fill="#CCE198"/>
<path id="Vector_13" d="M73.7898 100.473C74.6729 100.473 75.633 101.274 75.5419 102.215C75.2265 105.421 74.2804 108.55 72.3742 111.185C70.9935 113.088 69.3186 114.607 67.4544 115.834C67.5174 116.105 67.5315 116.398 67.4894 116.691C67.3422 117.743 67.1881 118.803 67.0409 119.855C66.8517 121.2 66.6554 122.545 66.4662 123.89C69.9283 125.73 73.5165 127.305 77.2659 128.469C83.5664 130.421 90.2312 131.222 96.7979 130.351C103.554 129.459 109.903 126.811 115.566 123.096C115.811 122.936 116.057 122.845 116.288 122.817C116.19 120.503 116.092 118.189 115.994 115.875C115.966 115.255 116.225 114.809 116.596 114.53C115.223 113.541 113.947 112.405 112.854 111.018C110.177 107.637 108.936 103.567 108.432 99.3716C105.916 101.455 103.056 103.135 99.9657 104.215C94.0087 106.299 87.4559 105.735 81.7162 103.254C78.4924 101.86 75.5209 99.7967 72.9699 97.2947L72.4442 101.17C72.7456 100.759 73.2081 100.48 73.8038 100.48L73.7898 100.473Z" fill="#FFEFDD"/>
<path id="Vector_14" d="M151.224 130.219C151 129.397 151.512 128.205 152.451 128.072C154.378 127.808 155.899 126.497 156.775 124.811C156.074 125.152 155.317 125.396 154.532 125.508C151.21 125.975 148.064 124.441 145.569 122.378C138.687 116.698 140.172 107.352 137.614 99.7273C137.047 98.0476 136.157 96.3331 134.93 94.981C133.472 93.385 131.671 92.1375 129.779 91.1129C126.128 89.1336 121.019 87.4679 117.052 89.503C116.772 89.6493 116.498 89.7051 116.239 89.7051C115.062 91.9075 113.639 93.9914 111.999 95.8871C111.901 95.9986 111.796 96.1101 111.691 96.2216C111.824 99.1906 112.251 102.111 113.317 104.906C114.123 107.031 115.447 108.913 117.136 110.488C118.601 111.854 120.297 112.928 122.224 113.931C125.273 115.52 128.349 117.026 131.335 118.726C134.587 120.58 137.782 122.525 141.006 124.427C143.557 125.94 146.298 127.243 148.372 129.404C148.912 129.968 149.409 130.567 149.872 131.195C150.397 131.027 150.895 130.791 151.336 130.456C151.301 130.372 151.266 130.296 151.238 130.198L151.224 130.219Z" fill="#DB9B63"/>
<path id="Vector_15" d="M82.1508 24.9022C83.132 24.6304 83.959 25.2437 84.3094 26.1219C85.2134 28.4009 86.4819 30.5754 87.9887 32.5199C93.5393 39.6916 102.482 44.1591 111.586 44.1451C111.635 44.1451 111.67 44.1521 111.712 44.1591C109.091 38.1304 105.208 32.7708 99.3421 29.5021C97.3728 28.4079 99.1389 25.3971 101.108 26.4913C112.377 32.7708 117.164 45.9572 119.288 57.9309C119.344 58.2375 119.33 58.5372 119.26 58.816C120.346 58.3699 121.509 58.0912 122.617 58.1609C123.009 58.1818 123.373 58.2515 123.724 58.363C123.661 58.1051 123.654 57.8193 123.738 57.5057C125.168 52.181 124.915 46.3754 123.948 40.9949C123.219 36.9247 122.105 33.1054 119.813 29.6694C117.571 26.3101 114.529 23.4456 111.228 21.1247C107.969 18.8318 104.416 16.9639 100.632 15.793C99.7696 15.5282 98.8936 15.2982 98.0105 15.11C97.0644 14.9149 96.6159 14.8382 95.7959 14.7685C94.997 14.6988 94.191 14.6779 93.3921 14.7197C93.2029 14.7337 93.0136 14.7476 92.8244 14.7616C92.7473 14.7616 92.6702 14.7755 92.5931 14.7894C92.5931 14.7894 92.5931 14.7894 92.5791 14.7894C92.2497 14.8452 91.9274 14.9079 91.605 14.9846C89.909 15.3958 88.9769 13.4792 89.6567 12.3431C88.5003 12.3431 87.3229 12.4546 86.1946 12.831C86.2507 12.9355 86.2927 13.054 86.3278 13.1795C86.559 14.0158 86.0404 15.1728 85.1013 15.3261C81.3659 15.9255 77.9669 17.5494 74.8973 19.7099C69.2346 23.7035 64.7283 29.5021 61.7778 35.7189C60.3832 38.6462 59.395 41.8312 58.7362 45.0024C57.9653 48.7241 58.0985 52.5016 58.8974 56.2024C59.2899 58.0284 57.0192 58.9693 55.975 57.9727C56.1502 58.6836 56.3604 59.3736 56.5777 60.0496C57.8182 58.9763 59.381 58.3212 61.1331 58.3072C61.9811 58.3002 62.8501 58.4396 63.6911 58.6905C63.5719 56.2024 63.3827 53.7143 63.614 51.2262C64.0135 46.8284 65.1418 42.5212 66.8798 38.4649C68.5898 34.4784 70.9937 30.7078 74.5539 28.1222C75.3248 27.5646 76.5092 27.9967 76.9507 28.7494C76.9928 28.8191 77.0138 28.8818 77.0418 28.9515C78.2052 27.8643 79.4106 26.8188 80.8893 26.2195C81.0505 25.6131 81.5691 25.0765 82.1438 24.9231L82.1508 24.9022Z" fill="#DB9B63"/>
<path id="Vector_16" d="M124.488 64.287C124.249 63.4297 123.857 62.6212 123.226 61.9661C123.198 61.9382 123.093 61.8407 123.044 61.7919C123.009 61.771 122.96 61.7431 122.939 61.7291C122.862 61.7082 122.693 61.6594 122.581 61.6385C122.602 61.6525 122.231 61.6455 122.168 61.6525C122.098 61.6525 122.021 61.6594 121.951 61.6734C121.916 61.6804 121.874 61.6943 121.803 61.7082C121.376 61.8058 120.955 61.9313 120.549 62.0916C120.297 62.1891 120.549 62.0776 120.241 62.2309C120.072 62.3146 119.911 62.3912 119.743 62.4749C119.4 62.6561 119.063 62.8443 118.741 63.0603C116.863 64.3218 115.111 61.297 116.975 60.0495C116.989 60.0425 117.003 60.0355 117.017 60.0216C116.484 59.8334 116.022 59.4222 115.923 58.8647C115.237 54.9896 114.27 50.9473 112.875 47.0792C112.595 47.4137 112.167 47.6367 111.599 47.6367C108.712 47.6367 105.804 47.2534 103.021 46.4868C93.1467 43.7756 84.7157 36.5621 80.9453 27.0557C80.8331 26.7769 80.8402 26.4912 80.9172 26.2124C79.4385 26.8118 78.2331 27.8502 77.0697 28.9444C77.4201 29.7599 77.0557 30.6171 76.3479 31.1259C74.757 32.2828 73.3834 33.9625 72.3041 35.6631C70.1035 39.1269 68.6948 43.0578 67.8188 47.0513C67.4193 48.8703 67.16 50.55 67.0689 52.4039C66.9288 55.2405 67.2652 58.0701 67.3072 60.9067C67.3282 62.2867 66.0177 62.8094 64.9945 62.4958C64.588 62.6352 64.1185 62.6212 63.6279 62.3634C63.5438 62.3146 63.4457 62.2867 63.3616 62.2379C63.3475 62.2379 63.3335 62.2309 63.3125 62.224C63.1723 62.1752 63.0322 62.1264 62.892 62.0846C62.5696 61.987 62.2402 61.9103 61.9038 61.8476C61.8758 61.8476 61.4763 61.8058 61.3992 61.8058C61.182 61.8058 60.9577 61.8058 60.7405 61.8267C60.6914 61.8407 60.369 61.8894 60.2849 61.9104C60.1518 61.9452 59.8014 62.0567 59.8154 62.0567C59.5911 62.1473 59.1075 62.4609 58.8903 62.6561C58.1474 63.3391 57.6498 64.273 57.3835 65.0954C56.7808 66.9493 56.914 68.7684 57.5657 70.6571C58.8132 74.2534 62.051 76.853 65.9406 76.3373C66.9007 76.2118 67.6786 77.2294 67.6927 78.0797C67.8118 84.2826 70.8394 90.1718 75.1705 94.5347C76.9366 96.319 78.9129 97.7547 81.0644 99.0371C81.4288 99.2531 81.8003 99.4622 82.1787 99.6574C83.0548 100.103 83.5524 100.313 84.3863 100.612C87.0144 101.56 89.7757 102.069 92.572 102.055C94.1348 102.048 95.6556 101.839 97.1694 101.442C97.8001 101.281 98.4169 101.086 99.0266 100.877C99.2929 100.786 99.5522 100.689 99.8115 100.584C100.106 100.466 100.078 100.48 100.225 100.417C109.322 96.4305 115.734 86.8892 116.386 77.0761C116.456 76.0585 117.143 75.4243 118.138 75.3337C118.159 75.3337 118.166 75.3337 118.187 75.3267C118.545 75.257 118.895 75.1873 119.245 75.0897C120.241 74.8249 120.962 74.5391 121.817 73.9467C123.261 72.9501 123.871 71.4377 124.291 69.9393C124.81 68.1132 124.985 66.1409 124.474 64.3148L124.488 64.287ZM92.8663 73.6889C95.123 73.6889 95.123 77.1736 92.8663 77.1736C90.6097 77.1736 90.6097 73.6889 92.8663 73.6889ZM81.3658 62.2728C79.1091 62.2728 79.1091 58.788 81.3658 58.788C83.6224 58.788 83.6224 62.2728 81.3658 62.2728ZM82.7114 51.1215C82.389 51.0518 82.0456 51.01 81.7232 50.9403C81.6952 50.9403 81.6671 50.9333 81.6321 50.9264C81.562 50.9194 81.4919 50.9124 81.4218 50.9055C81.2607 50.8915 81.0925 50.8776 80.9313 50.8706C80.6439 50.8567 80.3496 50.8636 80.0622 50.8776C79.9361 50.8845 79.8099 50.9055 79.6838 50.9124C79.6628 50.9124 79.6488 50.9124 79.6277 50.9194C79.1301 51.01 78.6466 51.1564 78.177 51.3306C77.9528 51.4491 77.9457 51.4421 77.9948 51.4073C77.8967 51.4491 77.8056 51.4979 77.7145 51.5397C77.4832 51.6582 77.2519 51.7836 77.0207 51.9091C76.1727 52.3969 75.1424 52.0833 74.6238 51.2818C74.1122 50.4942 74.4556 49.3512 75.2546 48.8982C76.3479 48.2779 77.5393 47.7413 78.7867 47.5322C80.4267 47.2604 82.0245 47.3928 83.6505 47.7483C84.6106 47.9573 85.0731 49.0097 84.8769 49.8949C84.6597 50.8427 83.6154 51.3097 82.7184 51.1145L82.7114 51.1215ZM100.884 83.4323C100.211 85.6904 99.2649 87.8788 97.7511 89.7049C95.7888 92.0675 92.7262 93.106 89.8738 91.7191C86.8112 90.2276 85.2554 86.5546 84.5265 83.4462C84.3863 82.8538 84.5475 82.2475 84.926 81.8223C85.1713 81.5226 85.5357 81.3135 86.0052 81.2648C86.0473 81.2648 86.0893 81.2508 86.1314 81.2508C86.1594 81.2508 86.1875 81.2438 86.2225 81.2438C86.7691 81.2438 87.3088 81.2438 87.8554 81.2438C91.6399 81.2438 95.4173 81.2369 99.2018 81.2299C100.323 81.2299 101.213 82.345 100.891 83.4323H100.884ZM103.673 62.2728C101.416 62.2728 101.416 58.788 103.673 58.788C105.93 58.788 105.93 62.2728 103.673 62.2728ZM108.929 51.2957C108.488 52.1321 107.331 52.376 106.532 51.923C106.294 51.7836 106.049 51.6512 105.804 51.5327C105.684 51.47 105.558 51.4142 105.439 51.3585C105.439 51.3585 105.425 51.3585 105.418 51.3445C105.418 51.3445 105.411 51.3445 105.404 51.3445C104.928 51.1564 104.437 51.017 103.932 50.9264C103.904 50.9264 103.876 50.9194 103.841 50.9124C103.708 50.9055 103.575 50.8845 103.449 50.8776C103.154 50.8636 102.867 50.8636 102.573 50.8776C102.405 50.8845 102.243 50.8985 102.075 50.9124C102.005 50.9124 101.942 50.9264 101.872 50.9333C101.529 50.9891 101.185 51.0518 100.842 51.1285C99.8816 51.3376 98.9915 50.8497 98.6832 49.9088C98.4028 49.0446 99.0126 47.9643 99.9096 47.7622C101.529 47.4067 103.126 47.2743 104.773 47.5461C106.028 47.7552 107.212 48.2919 108.306 48.9122C109.154 49.3931 109.378 50.4664 108.936 51.2957H108.929Z" fill="#FFEFDD"/>
<path id="Vector_17" d="M116.989 139.419L116.442 126.664C113.183 128.72 109.714 130.428 106.063 131.696C99.4963 133.989 92.397 134.686 85.4938 133.808C78.6257 132.937 72.073 130.665 65.9338 127.543C65.3381 131.717 64.7424 135.892 64.1467 140.067C65.5974 140.06 67.0481 140.053 68.4988 140.046C77.7917 139.997 87.0847 139.955 96.3706 139.907C102.209 139.879 108.039 139.851 113.877 139.823C114.725 139.823 115.251 140.304 115.461 140.91L117.311 140.381C117.122 140.123 116.996 139.809 116.982 139.412L116.989 139.419Z" fill="#CCE198"/>
<path id="Vector_18" d="M133.094 161.268C130.683 147.699 127.95 134.185 125.539 120.615C125.476 120.26 125.497 119.904 125.602 119.584C125.378 119.465 125.154 119.34 124.922 119.221C123.107 118.266 121.264 117.381 119.505 116.385C119.834 124.065 120.164 131.745 120.486 139.426C120.563 141.28 118.202 141.593 117.311 140.395L115.461 140.924C115.819 141.942 115.286 143.315 113.877 143.322C111.761 143.336 109.637 143.343 107.521 143.357C98.228 143.405 88.935 143.447 79.6491 143.496C73.8112 143.524 67.9803 143.552 62.1424 143.58C60.888 143.58 60.2993 142.465 60.4534 141.377C60.6006 140.325 60.7548 139.266 60.902 138.213C61.8691 131.418 62.8433 124.616 63.8104 117.82C62.5209 118.392 61.1823 118.88 59.8157 119.298C57.8604 119.897 55.8911 120.511 53.9428 121.173C53.9778 121.41 53.9778 121.654 53.9288 121.904C53.5994 123.528 53.27 125.145 52.9406 126.769C51.5039 133.843 50.0742 140.91 48.6375 147.984C47.7405 152.424 46.8364 156.857 45.9393 161.296C45.8833 161.568 45.7431 161.798 45.5679 161.993H133.465C133.283 161.798 133.143 161.568 133.101 161.296L133.094 161.268Z" fill="white"/>
<path id="Vector_19" d="M22.2865 109.527C22.2865 109.527 22.3007 109.464 22.3148 109.436C22.3007 109.485 22.2936 109.513 22.2865 109.527Z" fill="#DB9B63"/>
<path id="Vector_20" d="M6.34265 142.458C6.32859 142.416 6.32859 142.388 6.33562 142.367C6.31452 142.332 6.29342 142.29 6.27232 142.255C6.29342 142.395 6.39891 142.654 6.34265 142.458Z" fill="#323232"/>
<path id="Vector_21" d="M38.959 110.349C38.6296 107.491 38.8048 104.606 38.8048 101.741C38.8048 96.1307 38.6716 90.5202 38.5315 84.9098C38.4754 82.7631 38.6786 80.3656 37.9708 78.3026C37.1578 75.94 35.2656 74.7342 32.7637 75.1594C28.0962 75.9469 28.1943 81.3065 27.963 84.9446C27.6196 90.3181 27.4935 95.7125 27.4514 101.107C26.3791 99.9849 25.1667 99.0091 23.8001 98.4028C21.0388 97.1831 17.9132 97.7058 15.9158 100.034C15.3061 100.745 14.8506 101.525 14.5072 102.341C14.395 102.32 14.2759 102.299 14.1427 102.299C11.7739 102.243 9.25096 102.884 7.94041 104.912C5.69777 104.355 3.11172 105.031 1.54187 106.766C-0.182157 108.669 -0.140108 111.54 0.168256 113.931C0.245347 114.537 0.343462 115.144 0.427561 115.75C0.420553 115.708 0.469611 116.098 0.476619 116.168C0.497644 116.384 0.518669 116.607 0.546702 116.823C0.644817 117.778 0.735925 118.74 0.960189 119.674C1.11437 120.315 1.35966 120.928 1.67503 121.486C1.59093 121.688 1.53487 121.904 1.52085 122.134C1.23351 126.023 -0.336339 130.051 1.12839 133.885C1.8222 135.704 2.94353 137.279 4.05083 138.868C4.64653 139.725 5.23523 140.582 5.77486 141.475C5.894 141.67 6.11126 141.969 6.27946 142.255C6.27245 142.199 6.27946 142.158 6.3145 142.178C6.34954 142.192 6.37056 142.269 6.38458 142.374C6.36356 142.346 6.34954 142.346 6.34253 142.374C6.36356 142.415 6.38458 142.457 6.3986 142.492C6.44065 143.022 6.36356 144.046 6.36356 144.193C6.34954 145.28 6.3145 146.367 6.27245 147.461C6.17433 149.998 6.03417 152.528 5.88699 155.058C5.79589 156.598 5.70478 158.132 5.59966 159.672C5.5506 160.369 6.04818 160.989 6.67192 161.268C6.88918 161.366 7.12045 161.414 7.35172 161.414C8.3539 161.414 9.04071 160.613 9.10378 159.672C9.35608 155.943 9.57334 152.215 9.73453 148.479C9.81863 146.52 9.9658 144.527 9.85367 142.569C9.78359 141.37 9.27899 140.499 8.64825 139.467C7.60402 137.76 6.34954 136.192 5.31232 134.484C4.191 132.63 3.91067 130.909 4.07886 128.762C4.20501 127.131 4.56243 125.535 4.80772 123.918C6.46868 124.288 8.9496 124.072 10.4914 122.977C10.5615 123.019 10.6246 123.068 10.6947 123.103C11.7389 123.633 12.9373 123.821 14.1007 123.695C15.7827 123.514 17.5557 122.747 18.4458 121.43C19.6933 121.674 20.9547 121.625 22.1462 121.207C22.3564 122.573 22.1882 123.911 21.7327 125.347C20.9968 127.675 19.8264 129.842 18.9644 132.128C18.628 133.007 19.3358 134.038 20.1908 134.275C21.172 134.547 22.013 133.94 22.3494 133.055C23.73 129.431 25.9937 125.856 25.7975 121.834C25.6503 118.782 23.8982 116.112 22.903 113.311C22.6928 112.711 22.5036 112.105 22.3564 111.492C22.2723 111.136 22.2443 110.99 22.2303 110.816C22.2022 110.495 22.1882 110.174 22.2162 109.861C22.2162 109.833 22.2303 109.805 22.2373 109.749C22.2513 109.679 22.2723 109.61 22.3003 109.54C22.3003 109.526 22.3073 109.491 22.3284 109.449C22.3144 109.498 22.3073 109.526 22.3003 109.54C22.2863 109.659 22.5456 109.192 22.4826 109.233C22.5246 109.185 22.5737 109.143 22.6157 109.115C22.6858 109.08 22.7769 109.038 22.826 109.01C22.875 109.003 23.1694 108.913 23.2394 108.892C22.9241 108.996 23.0642 108.969 23.2394 108.941C23.2815 108.941 23.3656 108.955 23.4567 108.976C23.5058 109.003 23.6179 109.052 23.702 109.094C23.737 109.108 23.8071 109.164 23.8562 109.199C23.9263 109.261 23.9963 109.317 24.0664 109.38C24.9495 110.202 25.2999 110.795 25.9727 111.847C28.2293 115.36 30.1986 119.033 32.5464 122.489C33.8009 124.336 36.8355 122.594 35.574 120.733C33.2893 117.367 31.348 113.798 29.1754 110.363C27.8859 108.32 26.2109 105.679 23.5408 105.449C20.4852 105.184 18.4668 108.007 18.7331 110.816C18.9714 113.311 20.0927 115.722 21.0669 117.959C20.9758 117.987 20.8847 118.015 20.7936 118.057C21.0949 117.931 20.3731 118.106 20.4852 118.092C20.1768 118.134 19.8264 118.12 19.5181 118.092C19.1186 118.05 18.7121 117.952 18.3617 117.771C18.3267 117.75 18.3056 117.729 18.2846 117.722C18.2075 117.59 18.1304 117.464 18.0673 117.325C17.9832 117.116 17.9272 116.886 17.8711 116.663C17.7239 116.057 17.6819 115.45 17.6328 114.83C17.4997 113.136 17.3665 111.443 17.2404 109.749C17.1282 108.23 16.9741 106.627 17.2824 105.128C17.6749 103.205 19.0135 100.898 21.3262 101.253C23.744 101.623 25.7624 104.264 27.0239 106.16C27.4724 106.836 28.1592 107.031 28.79 106.92C29.7781 107.129 30.9485 106.585 30.9485 105.282C30.9485 99.8455 31.0466 94.4092 31.2779 88.98C31.355 87.133 31.4531 85.2931 31.5933 83.4462C31.6564 82.6516 31.7264 81.8571 31.8105 81.0695C31.8736 80.4562 31.9437 79.7732 32.4062 79.1669C32.4903 79.0553 32.7146 78.8532 32.9739 78.7278C33.2542 78.5954 33.7028 78.5466 34.0952 78.5396C33.899 78.5396 34.3195 78.6511 34.1093 78.5396C34.2004 78.5884 34.2214 78.5954 34.2284 78.5884C34.2284 78.5954 34.2564 78.6232 34.3055 78.679C34.3896 78.7626 34.5858 79.132 34.6209 79.2435C34.9152 80.1008 34.9432 80.5399 34.9713 81.3971C35.0203 82.7283 35.0343 84.0595 35.0694 85.3976C35.2025 90.7433 35.3287 96.0889 35.3287 101.442C35.3287 104.208 35.1395 107.017 35.4198 109.777C35.6791 112.356 36.2257 114.9 36.3939 117.492C36.478 118.698 36.5061 119.946 36.2888 121.137C36.0505 122.441 35.574 123.695 35.1325 124.943C34.2004 127.556 33.1351 130.121 32.1399 132.707C30.7943 136.24 29.4558 139.899 29.3226 143.712C29.1404 148.946 29.2525 154.194 29.3226 159.435C29.3226 159.567 29.3226 159.707 29.3226 159.839C29.3577 162.076 32.8618 162.083 32.8267 159.839C32.7567 154.814 32.6866 149.789 32.7917 144.764C32.8057 144.207 32.8197 143.656 32.8478 143.098C32.8548 142.903 32.8688 142.708 32.8828 142.513C32.8828 142.478 32.8828 142.45 32.8898 142.415C33.065 141.858 33.1071 141.21 33.2402 140.638C33.4014 139.962 33.5836 139.293 33.7799 138.624C34.1723 137.286 34.6349 135.976 35.1184 134.665C36.1206 131.968 37.2349 129.313 38.2301 126.608C38.3142 126.385 38.3913 126.162 38.4684 125.939C37.5573 126.42 36.6743 126.943 35.8893 127.466C36.6743 126.943 37.5573 126.427 38.4684 125.939C39.3304 123.521 39.9962 121.144 39.9401 118.531C39.877 115.785 39.2954 113.088 38.98 110.369L38.959 110.349ZM8.19271 120.301C7.74418 120.524 7.05737 120.587 6.5668 120.601C6.33552 120.601 6.09724 120.615 5.86597 120.587C5.78888 120.573 5.17215 120.371 5.38941 120.468C5.039 120.308 5.06703 120.336 4.79371 119.987C4.9619 120.203 4.47833 119.297 4.56944 119.541C4.42227 119.165 4.33116 118.768 4.25407 118.37C4.11391 117.653 4.07886 117.109 3.98776 116.252C3.76349 114.175 3.15377 111.979 3.72845 109.909C3.74948 109.84 3.93169 109.401 3.91767 109.387C3.98075 109.303 4.06485 109.185 4.05784 109.185C4.29612 108.913 4.51338 108.766 4.82174 108.585C5.45248 108.23 6.13929 108.118 6.83311 108.237C6.58081 109.944 6.6579 111.735 6.81909 113.38C7.05036 115.687 7.43582 118.078 8.30484 120.238C8.30484 120.238 8.30484 120.245 8.30484 120.252C8.27681 120.259 8.24177 120.273 8.19271 120.294V120.301ZM15.3902 119.681C15.3902 119.681 15.3341 119.716 15.264 119.764C15.215 119.792 14.8295 119.973 14.8435 119.98C14.0236 120.287 13.3438 120.329 12.713 120.162C12.6219 120.141 12.5378 120.106 12.4467 120.078C12.4257 120.064 12.3836 120.043 12.3066 120.008C12.1314 119.89 12.1103 119.883 12.2365 119.987C12.1243 119.883 11.9982 119.785 11.872 119.695C11.872 119.646 11.7389 119.388 11.6688 119.256C11.6338 119.158 11.5286 118.907 11.5076 118.865C11.1502 117.876 10.8979 116.844 10.6877 115.806C10.2321 113.52 9.97982 111.032 10.3022 108.746C10.4283 107.867 10.6666 106.78 11.2834 106.341C11.9632 105.853 12.8112 105.777 13.6732 105.777C13.5891 106.697 13.5751 107.637 13.6311 108.578C13.7222 110.209 13.8694 111.833 13.9955 113.457C14.1147 114.997 14.1217 116.649 14.6263 118.127C14.8225 118.712 15.0888 119.214 15.4182 119.66C15.4042 119.667 15.3972 119.681 15.3832 119.688L15.3902 119.681Z" fill="#323232"/>
<path id="Vector_22" d="M22.2865 109.527C22.2865 109.527 22.3007 109.464 22.3148 109.436C22.3007 109.485 22.2936 109.513 22.2865 109.527Z" fill="#323232"/>
<path id="Vector_23" d="M86.2157 81.2372C86.2157 81.2372 86.1597 81.2442 86.1246 81.2442C86.0826 81.2442 86.0405 81.2512 85.9985 81.2581C85.5289 81.3069 85.1645 81.516 84.9192 81.8157C84.5408 82.2478 84.3866 82.8542 84.5198 83.4396C85.2486 86.548 86.8044 90.221 89.8671 91.7124C92.7194 93.0994 95.782 92.0679 97.7443 89.6982C99.2581 87.8722 100.204 85.6838 100.877 83.4257C101.199 82.3384 100.309 81.2163 99.188 81.2233C95.4036 81.2233 91.6261 81.2303 87.8417 81.2372C87.295 81.2372 86.7554 81.2372 86.2087 81.2372H86.2157ZM95.2564 87.2519C95.1933 87.3216 95.0672 87.468 95.0391 87.5028C94.8219 87.7468 94.5836 87.9698 94.3383 88.1928C94.3103 88.2207 94.2963 88.2346 94.2823 88.2486C94.2752 88.2486 94.2752 88.2486 94.2612 88.2625C94.1631 88.3252 94.072 88.3949 93.9669 88.4577C93.8548 88.5274 93.7426 88.5901 93.6235 88.6528C93.5814 88.6737 93.5464 88.6946 93.5043 88.7086C93.3011 88.7643 93.0979 88.834 92.8946 88.8898C92.8876 88.8898 92.8876 88.8898 92.8806 88.8898C92.7615 88.8828 92.6283 88.9037 92.5162 88.9037C92.4951 88.9037 92.39 88.9037 92.2989 88.9037C92.2709 88.8967 92.2358 88.8828 92.1868 88.8689C92.0746 88.841 91.9555 88.8131 91.8434 88.7783C91.8154 88.7713 91.7453 88.7434 91.6822 88.7225C91.6121 88.6877 91.521 88.6458 91.493 88.6319C91.3808 88.5692 91.2687 88.5065 91.1636 88.4437C91.0515 88.374 90.9533 88.2904 90.8412 88.2207C91.1636 88.4159 90.8903 88.2555 90.7431 88.1301C90.5469 87.9559 90.3576 87.7677 90.1754 87.5656C90.1053 87.4889 90.0423 87.4122 89.9792 87.3356C89.9932 87.3495 89.818 87.1265 89.7549 87.0359C89.5377 86.7222 89.3414 86.3947 89.1592 86.0532C89.0611 85.872 88.97 85.6908 88.8859 85.5096C88.8509 85.4399 88.8228 85.3702 88.7878 85.2935C88.7878 85.2796 88.7457 85.1959 88.7177 85.1402C88.6967 85.0774 88.6546 84.9868 88.6476 84.9659C88.6126 84.8823 88.5845 84.7987 88.5495 84.715C91.2757 84.715 94.0019 84.715 96.7211 84.7081C96.3987 85.4608 96.0133 86.1786 95.4807 86.9383C95.4526 86.9732 95.3055 87.1753 95.2564 87.245V87.2519Z" fill="#323232"/>
<path id="Vector_24" d="M92.8665 73.6889C90.6098 73.6889 90.6098 77.1737 92.8665 77.1737C95.1231 77.1737 95.1231 73.6889 92.8665 73.6889Z" fill="#323232"/>
<path id="Vector_25" d="M81.3656 58.7876C79.109 58.7876 79.109 62.2723 81.3656 62.2723C83.6223 62.2723 83.6223 58.7876 81.3656 58.7876Z" fill="#323232"/>
<path id="Vector_26" d="M103.673 62.2723C105.93 62.2723 105.93 58.7876 103.673 58.7876C101.417 58.7876 101.417 62.2723 103.673 62.2723Z" fill="#323232"/>
<path id="Vector_27" d="M105.411 51.345C105.411 51.345 105.425 51.352 105.432 51.3589C105.559 51.4147 105.678 51.4704 105.797 51.5332C106.042 51.6586 106.287 51.791 106.526 51.9235C107.325 52.3765 108.481 52.1326 108.923 51.2962C109.364 50.4668 109.147 49.3935 108.292 48.9126C107.199 48.2923 106.007 47.7557 104.76 47.5466C103.12 47.2748 101.522 47.4072 99.8959 47.7627C98.9988 47.9578 98.3891 49.045 98.6695 49.9093C98.9708 50.8432 99.8679 51.338 100.828 51.1289C101.171 51.0523 101.515 50.9965 101.858 50.9338C101.928 50.9268 101.991 50.9199 102.061 50.9129C102.223 50.8989 102.391 50.885 102.559 50.878C102.853 50.8641 103.141 50.8641 103.435 50.878C103.568 50.885 103.701 50.8989 103.828 50.9129C103.856 50.9129 103.884 50.9199 103.919 50.9268C104.423 51.0174 104.914 51.1568 105.39 51.345C105.39 51.345 105.397 51.345 105.404 51.345H105.411Z" fill="#323232"/>
<path id="Vector_28" d="M83.6364 47.7627C82.0175 47.4072 80.4196 47.2748 78.7727 47.5466C77.5182 47.7557 76.3338 48.2923 75.2405 48.9126C74.4416 49.3656 74.1052 50.5087 74.6098 51.2962C75.1284 52.0977 76.1586 52.4044 77.0066 51.9235C77.2309 51.791 77.4621 51.6656 77.7004 51.5541C77.7915 51.5053 77.8896 51.4635 77.9807 51.4217C78.0088 51.4008 78.0578 51.3798 78.0999 51.3659H78.1139C78.1489 51.352 78.191 51.338 78.226 51.3171C78.198 51.3311 78.184 51.338 78.156 51.352C78.6325 51.1777 79.1091 51.0314 79.6067 50.9408C79.6277 50.9408 79.6417 50.9408 79.6627 50.9338C79.7889 50.9338 79.915 50.9059 80.0412 50.8989C80.3285 50.885 80.6229 50.878 80.9102 50.892C81.0714 50.892 81.2396 50.9059 81.4008 50.9268C81.4709 50.9268 81.5409 50.9408 81.611 50.9477C81.597 50.9477 81.583 50.9477 81.569 50.9408C81.59 50.9408 81.604 50.9408 81.625 50.9547C81.8143 50.9756 81.7862 50.9826 81.7021 50.9686C82.0245 51.0383 82.3679 51.0802 82.6903 51.1498C83.5803 51.345 84.6246 50.885 84.8488 49.9302C85.0521 49.045 84.5825 47.9996 83.6224 47.7836L83.6364 47.7627ZM79.8449 50.885C79.88 50.885 79.894 50.878 79.8449 50.885V50.885Z" fill="#323232"/>
<path id="Vector_29" d="M81.6253 50.9192C81.6253 50.9192 81.6957 50.9332 81.7169 50.9332C81.6887 50.9332 81.6605 50.9262 81.6394 50.9192C81.6394 50.9192 81.6324 50.9192 81.6253 50.9192Z" fill="#323232"/>
<path id="Vector_30" d="M78.0724 51.3728C78.0724 51.3728 78.0162 51.4008 77.988 51.4148C77.9318 51.4498 77.9458 51.4498 78.1709 51.3379C78.1568 51.3379 78.1427 51.3449 78.1287 51.3519C78.1146 51.3589 78.0935 51.3658 78.0794 51.3728H78.0724Z" fill="#323232"/>
<path id="Vector_31" d="M86.3347 13.1656C86.2997 13.0402 86.2576 12.9286 86.2016 12.8171C85.8231 12.0853 85.0032 11.8135 84.1832 11.9459C76.8035 13.1308 70.3629 18.0303 65.6043 23.5572C60.7336 29.2165 57.3065 35.8375 55.5895 43.0928C54.4822 47.7554 54.5242 52.432 55.5334 57.1155C55.6105 57.4849 55.7787 57.7567 55.989 57.9588C57.0332 58.9555 59.3039 58.0146 58.9114 56.1886C58.1125 52.4877 57.9793 48.7103 58.7502 44.9885C59.409 41.8174 60.4042 38.6323 61.7918 35.7051C64.7423 29.4952 69.2486 23.6896 74.9113 19.6961C77.9809 17.5285 81.3799 15.9116 85.1153 15.3122C86.0474 15.1589 86.573 14.0089 86.3417 13.1656H86.3347Z" fill="#323232"/>
<path id="Vector_32" d="M43.7877 162.481C44.3974 162.648 45.1263 162.425 45.5678 161.958H42.9608C43.171 162.202 43.4443 162.39 43.7877 162.481Z" fill="#323232"/>
<path id="Vector_33" d="M154.938 143.245C153.887 139.071 152.464 134.722 149.857 131.216C148.575 131.62 147.124 131.627 145.905 131.627C147.124 131.627 148.575 131.627 149.857 131.216C149.395 130.589 148.897 129.989 148.358 129.425C146.283 127.264 143.536 125.954 140.992 124.448C137.775 122.539 134.572 120.594 131.321 118.747C128.335 117.047 125.258 115.541 122.21 113.952C120.29 112.949 118.594 111.875 117.122 110.509C115.433 108.934 114.108 107.053 113.302 104.927C112.244 102.132 111.81 99.2118 111.676 96.2428C111.774 96.1312 111.887 96.0267 111.985 95.9082C113.625 94.0125 115.047 91.9286 116.225 89.7262C116.484 89.7262 116.757 89.6635 117.038 89.5241C121.004 87.489 126.113 89.1547 129.765 91.1341C131.664 92.1586 133.465 93.4062 134.916 95.0022C136.149 96.3543 137.039 98.0618 137.6 99.7484C140.165 107.373 138.672 116.719 145.554 122.399C148.049 124.462 151.196 125.996 154.518 125.529C155.31 125.417 156.067 125.173 156.76 124.832C155.884 126.518 154.364 127.822 152.436 128.094C151.497 128.226 150.986 129.418 151.21 130.24C151.238 130.331 151.273 130.414 151.308 130.498C151.644 130.24 151.946 129.933 152.198 129.557C151.946 129.94 151.637 130.247 151.308 130.498C151.665 131.3 152.513 131.578 153.361 131.46C158.954 130.686 162.066 124.079 160.769 119.019C160.349 117.36 157.812 117.353 157.391 119.019C156.866 121.117 154.924 122.316 152.794 122.135C150.509 121.939 148.351 120.434 146.816 118.81C144.23 116.071 143.424 112.259 142.842 108.53C142.225 104.571 141.833 100.578 140.207 96.87C138.427 92.8207 134.958 89.9005 131.075 87.8933C127.179 85.8791 122.434 84.52 118.089 85.5027C118.902 83.2585 119.463 80.9237 119.736 78.5401C120.955 78.2614 122.147 77.8153 123.205 77.188C125.406 75.8778 126.702 73.8287 127.487 71.4521C128.3 68.9919 128.545 66.2389 127.936 63.702C127.585 62.2314 126.87 60.719 125.791 59.6527C126.38 59.5621 126.905 59.1927 127.109 58.447C128.531 53.1292 128.398 47.4908 127.634 42.0755C127.003 37.6011 125.91 33.0569 123.583 29.1261C119.084 21.5154 111.109 15.8004 102.839 12.8662C99.0195 11.5141 94.6813 10.6568 90.6656 11.6326C90.175 11.7511 89.8456 12.0229 89.6494 12.3504C90.9319 12.3504 92.1864 12.462 93.3288 12.462C92.1864 12.462 90.9249 12.3504 89.6494 12.3504C88.9696 13.4865 89.9017 15.4031 91.5977 14.9919C91.9201 14.9152 92.2425 14.8525 92.5719 14.7968C92.5719 14.7968 92.5719 14.7968 92.5859 14.7968C92.663 14.7898 92.7401 14.7758 92.8172 14.7689C93.0064 14.7549 93.1956 14.734 93.3848 14.7271C94.1838 14.6852 94.9897 14.7062 95.7886 14.7758C96.6086 14.8455 97.0642 14.9222 98.0033 15.1174C98.8863 15.3055 99.7623 15.5355 100.624 15.8004C104.409 16.9713 107.962 18.8391 111.221 21.1321C114.522 23.4459 117.563 26.3174 119.806 29.6767C122.098 33.1127 123.212 36.932 123.941 41.0022C124.908 46.3897 125.16 52.1883 123.731 57.513C123.646 57.8267 123.653 58.1124 123.717 58.3703C123.366 58.2658 123.002 58.1961 122.609 58.1682C121.502 58.1055 120.346 58.3842 119.252 58.8233C119.322 58.5376 119.336 58.2379 119.28 57.9382C117.157 45.9645 112.37 32.7782 101.101 26.4986C99.1316 25.4044 97.3655 28.4083 99.3348 29.5094C105.201 32.7782 109.083 38.1377 111.704 44.1664C111.662 44.1664 111.62 44.1524 111.578 44.1524C102.475 44.1664 93.525 39.6989 87.9815 32.5273C86.4817 30.5828 85.2062 28.4083 84.3021 26.1292C83.9517 25.2511 83.1317 24.6447 82.1436 24.9096C81.5689 25.0699 81.0503 25.5995 80.8891 26.2059C81.674 25.8853 82.543 25.6901 83.5172 25.6901C82.536 25.6901 81.674 25.8853 80.8891 26.2059C80.812 26.4847 80.805 26.7774 80.9171 27.0492C84.6876 36.5556 93.1185 43.7691 102.993 46.4803C105.775 47.2469 108.684 47.6302 111.571 47.6302C112.139 47.6302 112.566 47.4072 112.847 47.0727C114.248 50.9477 115.209 54.9901 115.895 58.8582C115.993 59.4227 116.456 59.8339 116.989 60.0151C116.975 60.0221 116.961 60.029 116.947 60.043C115.089 61.2905 116.841 64.3083 118.713 63.0538C119.035 62.8378 119.371 62.6496 119.715 62.4684C119.876 62.3848 120.044 62.3011 120.212 62.2245C120.514 62.0711 120.268 62.1826 120.521 62.0851C120.934 61.9248 121.348 61.7993 121.775 61.7017C121.845 61.6878 121.887 61.6739 121.922 61.6669C121.993 61.6599 122.07 61.6529 122.14 61.646C122.203 61.646 122.574 61.646 122.553 61.632C122.665 61.6599 122.841 61.7087 122.911 61.7226C122.932 61.7366 122.974 61.7645 123.016 61.7854C123.065 61.8342 123.177 61.9317 123.198 61.9596C123.829 62.6147 124.221 63.4302 124.459 64.2805C124.971 66.1135 124.789 68.0858 124.277 69.9049C123.85 71.4033 123.247 72.9227 121.803 73.9124C120.941 74.5048 120.219 74.7836 119.231 75.0554C118.881 75.1529 118.523 75.2226 118.173 75.2923C118.152 75.2923 118.145 75.2923 118.124 75.2993C117.129 75.3899 116.442 76.0241 116.372 77.0417C115.727 86.8548 109.308 96.3961 100.211 100.383C100.064 100.445 100.092 100.438 99.7974 100.55C99.5381 100.654 99.2718 100.752 99.0125 100.843C98.4027 101.059 97.779 101.247 97.1553 101.407C95.6415 101.797 94.1207 102.007 92.5579 102.021C89.7616 102.034 87.0003 101.533 84.3722 100.578C83.5312 100.278 83.0406 100.069 82.1646 99.623C81.7862 99.4278 81.4147 99.2188 81.0503 99.0027C78.8917 97.7203 76.9224 96.2846 75.1563 94.5004C70.8252 90.1374 67.7977 84.2482 67.6785 78.0453C67.6645 77.195 66.8866 76.1775 65.9265 76.3029C62.0369 76.8187 58.7991 74.2121 57.5516 70.6227C56.8998 68.734 56.7667 66.908 57.3694 65.0611C57.6357 64.2386 58.1263 63.3047 58.8762 62.6217C59.0934 62.4266 59.577 62.1129 59.8013 62.0223C59.7872 62.0223 60.1376 61.9108 60.2708 61.876C60.3549 61.8551 60.6773 61.8063 60.7263 61.7923C60.9436 61.7714 61.1609 61.7645 61.3851 61.7714C61.4622 61.7714 61.8617 61.8202 61.8897 61.8133C62.2261 61.869 62.5555 61.9457 62.8779 62.0502C63.018 62.092 63.1582 62.1478 63.2984 62.1896C63.3194 62.1966 63.3264 62.1966 63.3474 62.2035C63.4315 62.2523 63.5296 62.2872 63.6137 62.329C64.0973 62.5869 64.5669 62.6008 64.9804 62.4614C66.0036 62.775 67.3141 62.2523 67.2931 60.8724C67.251 58.0358 66.9146 55.2061 67.0548 52.3695C67.1459 50.5156 67.4052 48.8429 67.8047 47.0169C68.6807 43.0234 70.0894 39.0926 72.29 35.6287C73.3692 33.9281 74.7429 32.2485 76.3337 31.0915C77.0416 30.5828 77.406 29.7255 77.0556 28.9101C76.1866 29.7255 75.3456 30.5549 74.4275 31.2449C75.3456 30.5618 76.1936 29.7255 77.0556 28.9101C77.0275 28.8404 76.9995 28.7707 76.9645 28.7079C76.523 27.9622 75.3386 27.5231 74.5677 28.0807C71.0075 30.6664 68.6036 34.4369 66.8936 38.4235C65.1556 42.4798 64.0272 46.7869 63.6278 51.1847C63.4035 53.6728 63.5857 56.161 63.7049 58.6491C62.8639 58.4051 61.9948 58.2588 61.1468 58.2658C59.3948 58.2797 57.8319 58.9348 56.5915 60.0081C55.7855 60.7051 55.1127 61.5833 54.6222 62.5869C52.2884 67.361 53.7952 73.4454 57.6707 76.9859C59.4929 78.6517 61.8266 79.711 64.2865 79.8225C64.9103 86.353 68.1971 92.5907 72.9558 97.2603C75.5068 99.7693 78.4783 101.825 81.7021 103.219C87.4418 105.7 93.9945 106.265 99.9516 104.181C103.042 103.101 105.902 101.421 108.418 99.3372C108.922 103.526 110.163 107.596 112.84 110.983C113.94 112.37 115.209 113.506 116.582 114.496C116.204 114.775 115.951 115.214 115.979 115.841C116.078 118.155 116.176 120.469 116.274 122.783C116.043 122.811 115.797 122.901 115.552 123.062C109.889 126.776 103.54 129.425 96.7838 130.317C90.2171 131.188 83.5522 130.387 77.2518 128.435C73.5024 127.271 69.9142 125.703 66.4521 123.856C66.6413 122.511 66.8375 121.166 67.0268 119.821C67.1739 118.768 67.3281 117.709 67.4753 116.657C67.5173 116.364 67.5033 116.071 67.4403 115.799C69.3115 114.566 70.9864 113.053 72.3601 111.151C74.2663 108.516 75.2124 105.387 75.5278 102.181C75.6189 101.24 74.6588 100.438 73.7757 100.438C73.18 100.438 72.7175 100.717 72.4161 101.128C72.1989 101.428 72.0587 101.791 72.0237 102.181C71.5471 106.997 68.8489 111.004 64.714 113.451C62.7657 114.607 60.8034 115.284 58.6379 115.953C55.8556 116.81 53.0873 117.695 50.3541 118.699C47.1303 119.883 43.9346 121.208 40.942 122.908C40.073 123.403 39.9398 124.274 40.2342 124.992C40.5986 125.884 41.6218 126.539 42.7151 125.919C45.119 124.553 47.6489 123.431 50.235 122.441C49.436 126.372 48.6441 130.296 47.8452 134.227C46.4085 141.301 44.9788 148.368 43.5421 155.442C43.2127 157.066 42.8833 158.69 42.5539 160.307C42.4348 160.899 42.582 161.499 42.9464 161.924H45.5535C45.7357 161.729 45.8758 161.499 45.9249 161.227C46.822 156.787 47.726 152.354 48.6231 147.915C50.0598 140.841 51.4895 133.774 52.9261 126.7C53.2555 125.076 53.5849 123.459 53.9143 121.835C53.9634 121.591 53.9634 121.34 53.9283 121.103C55.8836 120.448 57.8459 119.835 59.8013 119.228C61.1679 118.81 62.5064 118.322 63.796 117.751C62.8288 124.546 61.8547 131.348 60.8875 138.144C60.7404 139.196 60.5862 140.255 60.439 141.308C60.2848 142.402 60.8735 143.517 62.128 143.51C67.9659 143.482 73.7967 143.454 79.6346 143.427C88.9276 143.378 98.2205 143.336 107.506 143.287C109.623 143.273 111.746 143.266 113.863 143.252C116.12 143.238 116.12 139.754 113.863 139.768C108.025 139.795 102.194 139.823 96.3563 139.851C87.0634 139.9 77.7704 139.942 68.4845 139.991C67.0338 139.998 65.5831 140.004 64.1324 140.011C64.7281 135.837 65.3238 131.662 65.9195 127.487C72.0657 130.61 78.6114 132.882 85.4795 133.753C92.3826 134.631 99.475 133.934 106.049 131.641C109.693 130.373 113.162 128.658 116.428 126.609L116.975 139.363C117.073 141.601 120.577 141.607 120.479 139.363C120.149 131.683 119.82 124.002 119.498 116.322C121.257 117.319 123.1 118.211 124.915 119.159C125.139 119.277 125.371 119.403 125.595 119.521C125.49 119.842 125.469 120.197 125.532 120.553C127.943 134.122 130.676 147.636 133.087 161.206C133.136 161.478 133.269 161.708 133.451 161.903H136.072C136.437 161.478 136.57 160.878 136.458 160.286C134.159 147.35 131.58 134.471 129.253 121.542C131.068 122.574 132.862 123.626 134.656 124.692C136.31 125.675 137.964 126.672 139.625 127.654C141.069 128.512 142.583 129.285 143.977 130.226C145.765 131.425 147.166 133.223 148.259 135.168C149.479 137.335 150.299 139.67 150.986 142.06C152.654 147.866 153.39 153.888 154.847 159.742C155.079 160.676 155.842 161.039 156.585 160.976C157.573 160.892 158.534 160.056 158.225 158.815C156.936 153.651 156.214 148.361 154.91 143.197L154.938 143.245Z" fill="#323232"/>
<path id="Vector_34" d="M133.465 161.958C133.907 162.425 134.649 162.648 135.252 162.481C135.61 162.383 135.883 162.195 136.086 161.958H133.465Z" fill="#323232"/>
</g>
<defs>
<clipPath id="clip0_116_770">
<rect width="195.653" height="162.249" fill="white" transform="scale(1.00177)"/>
</clipPath>
</defs>
</svg>
