<svg width="14" height="6" viewBox="0 0 14 6" fill="none" xmlns="http://www.w3.org/2000/svg">
<path id="Vector" d="M4.6279 1.80688C4.54832 1.77794 4.46873 1.72729 4.40361 1.69112C4.21549 1.59706 4.02738 1.48854 3.8465 1.37277C3.75968 1.31489 3.67285 1.24977 3.5788 1.19189C3.41962 1.03272 3.23874 0.895244 3.07957 0.728834C2.42116 0.0487249 1.17671 0.0125489 0.51831 0.728834C-0.154564 1.45959 -0.19074 2.55934 0.51831 3.2901C3.92609 6.7847 10.1918 6.66894 13.4838 3.08027C14.1205 2.3857 14.2218 1.19913 13.4838 0.519018C12.7892 -0.11768 11.6099 -0.226208 10.9225 0.519018C10.7634 0.692663 10.6042 0.859073 10.4305 1.01101C10.4305 1.01101 10.3871 1.04719 10.3437 1.08336C10.3003 1.11954 10.1773 1.2136 10.1484 1.2353C9.96025 1.36554 9.76489 1.4813 9.56954 1.58982C9.45378 1.65494 9.33078 1.71282 9.20778 1.7707C8.80261 1.91541 8.40468 2.04564 7.98504 2.13247C7.91992 2.14694 7.8331 2.16864 7.74627 2.18311C7.7318 2.18311 7.70286 2.18311 7.66669 2.18311C7.42069 2.19758 7.17469 2.21929 6.92869 2.21929C6.7044 2.21929 6.48011 2.21205 6.26306 2.19035C6.19794 2.19035 6.12559 2.18311 6.05323 2.17587C6.02429 2.17587 5.99535 2.1614 5.95194 2.15417C5.51783 2.06011 5.10542 1.95159 4.68578 1.80688C4.66408 1.80688 4.64961 1.79241 4.6279 1.79241V1.80688Z" fill="#483A37"/>
</svg>
