<svg width="11" height="5" viewBox="0 0 11 5" fill="none" xmlns="http://www.w3.org/2000/svg">
<path id="Vector" d="M9.62862 0.307141C8.10868 0.0612684 6.56638 -0.110097 5.03154 0.083621C3.75002 0.240085 2.55791 0.553014 1.3658 1.05221C0.896408 1.25338 0.523875 1.4471 0.25565 1.90904C0.0246787 2.31138 -0.079631 2.89998 0.0693828 3.34702C0.218397 3.79406 0.494073 4.23366 0.926213 4.45718C1.336 4.67325 1.9097 4.83716 2.3642 4.64344C2.84849 4.44228 3.33278 4.25601 3.83943 4.09954C4.09275 4.02503 4.34608 3.95798 4.5994 3.89838C4.73352 3.86857 4.87508 3.83877 5.01664 3.81642C5.05389 3.81642 5.13585 3.79406 5.21781 3.78661C5.29976 3.77916 5.40408 3.76426 5.44133 3.76426C5.59779 3.74936 5.74681 3.74191 5.90327 3.73446C6.20875 3.71956 6.52168 3.71956 6.82716 3.73446C7.16244 3.74191 7.49772 3.76426 7.833 3.80152C7.96711 3.81642 8.10867 3.83877 8.25024 3.84622C8.11612 3.83877 7.95966 3.84622 8.32475 3.85367C8.32475 3.85367 8.31729 3.85367 8.30984 3.85367C8.30239 3.85367 8.29494 3.85367 8.28749 3.85367C8.30984 3.85367 8.32475 3.85367 8.3471 3.85367C8.3471 3.85367 8.33965 3.85367 8.33219 3.85367C8.44395 3.86857 8.54827 3.89092 8.66003 3.90582C9.16667 3.98778 9.63607 3.98778 10.098 3.71956C10.4854 3.49604 10.8505 3.04899 10.9548 2.6094C11.156 1.71532 10.6792 0.485959 9.65097 0.314593L9.62862 0.307141Z" fill="#483A37"/>
</svg>
