<svg width="136" height="156" viewBox="0 0 136 156" fill="none" xmlns="http://www.w3.org/2000/svg">
<path id="Vector" d="M135.856 154.651C134.748 149.084 133.806 143.475 132.65 137.914C131.445 132.097 130.122 126.211 127.941 120.664C127.615 119.84 127.276 119.009 126.902 118.199C127.103 118.22 127.311 118.22 127.518 118.192C133.058 117.444 136.354 110.976 135.011 105.866C134.582 104.225 132.103 104.211 131.673 105.866C131.147 107.916 129.222 109.038 127.179 108.954C125.005 108.864 122.879 107.576 121.321 106.129C118.62 103.615 117.616 100.215 116.979 96.6006C116.314 92.875 116.065 89.0248 114.742 85.4516C113.184 81.2552 110.234 78.1875 106.508 75.7846C102.797 73.3886 98.2818 71.8306 93.9538 72.5507C95.1033 69.8085 95.872 66.907 96.2044 63.9432C97.347 63.6731 98.4619 63.2438 99.459 62.6483C101.606 61.3533 102.866 59.3313 103.628 56.9976C104.424 54.5393 104.667 51.7832 104.064 49.2488C103.891 48.5355 103.635 47.8084 103.288 47.1298C103.385 46.9843 103.469 46.8181 103.517 46.6173C104.847 41.5207 104.777 36.1055 104.085 30.9188C103.489 26.4315 102.492 21.875 100.255 17.8932C96.0105 10.3383 88.2963 4.60454 80.2496 1.65458C76.5656 0.30424 72.3623 -0.554436 68.4775 0.415037C67.5634 0.643556 67.2033 1.37759 67.2518 2.09776C67.8681 1.99389 68.5121 1.86232 69.1907 1.6892C68.5121 1.86232 67.8681 1.98697 67.2518 2.09776C67.321 3.08801 68.1451 4.06441 69.3985 3.75279C69.717 3.67662 70.0286 3.60737 70.3541 3.5589C70.361 3.5589 70.3679 3.5589 70.3749 3.5589C70.4233 3.5589 70.4649 3.54505 70.5134 3.54505C70.728 3.52427 70.9358 3.5035 71.1504 3.49658C71.9122 3.45503 72.667 3.4758 73.4287 3.54505C74.779 3.6697 76.5933 4.08518 78.1722 4.59762C81.8077 5.76791 85.2355 7.65146 88.3586 9.92279C91.5301 12.2357 94.4316 15.1025 96.5437 18.4265C98.6973 21.8058 99.736 25.5936 100.415 29.5477C101.239 34.3327 101.488 39.4432 100.512 44.249C100.041 44.0344 99.5283 43.8959 98.9674 43.8613C97.894 43.792 96.7653 44.0621 95.7127 44.4983C93.5522 33.2109 88.961 21.0717 78.5392 15.1025C76.6003 13.9946 74.8552 16.9861 76.7942 18.0941C82.4448 21.3279 86.1496 26.6116 88.6494 32.5254C88.6217 32.5254 88.594 32.5184 88.5663 32.5184C79.8618 32.5323 71.3582 28.142 66.0953 21.2379C64.5926 19.2644 63.3254 17.0623 62.4321 14.7425C62.0928 13.8699 61.2687 13.2675 60.2993 13.5306C59.6414 13.7107 59.0667 14.3893 59.0182 15.0956C59.1844 15.0125 59.3436 14.9364 59.5029 14.8533C59.3436 14.9364 59.1775 15.0125 59.0182 15.0956C59.0043 15.2826 59.0182 15.4765 59.0944 15.6565C62.5637 24.6449 70.2156 31.6459 79.384 34.5405C78.8647 34.5889 78.3522 34.6582 77.8398 34.7413C77.4382 34.8036 77.0019 35.1983 76.808 35.5376C76.5933 35.9116 76.4964 36.4586 76.6349 36.8741C76.9465 37.8436 77.8052 38.2383 78.7677 38.086C78.8508 38.0721 78.9408 38.0583 79.0239 38.0444C79.0309 38.0444 79.0516 38.0444 79.0655 38.0444C79.0932 38.0444 79.204 38.0237 79.2317 38.0237C79.3079 38.0167 79.391 38.0029 79.4671 37.996C79.7788 37.9613 80.0973 37.9406 80.4089 37.9336C80.6997 37.9267 80.9837 37.9267 81.2745 37.9336C81.4199 37.9336 81.5584 37.9475 81.7038 37.9613C81.7523 37.9613 81.8908 37.9821 81.9808 37.989C82.0293 37.996 82.0778 38.0029 82.1055 38.0098C82.2371 38.0306 82.3617 38.0583 82.4933 38.086C82.7287 38.1344 82.9642 38.1968 83.1996 38.266C83.6774 38.4114 84.1483 38.5846 84.6123 38.7785C84.9931 38.9377 85.6094 38.8062 85.9488 38.6053C86.3088 38.3976 86.6482 37.9821 86.7451 37.5735C86.849 37.1304 86.8213 36.6318 86.572 36.237C86.482 36.0986 86.3781 35.9878 86.2673 35.8839C87.0359 35.9393 87.8115 35.9808 88.5871 35.9739C89.1203 35.9739 89.515 35.7731 89.7989 35.4753C91.1147 39.2563 92.0218 43.1896 92.6797 46.9359C92.6104 47.3098 92.6589 47.7045 92.8736 48.0785C93.3167 48.8402 94.4663 49.2349 95.2418 48.7017C96.2806 47.9884 97.0423 47.6353 98.1918 47.3652C98.7943 47.2267 99.2028 47.289 99.4937 47.6284C100.096 48.3278 100.47 49.0895 100.706 49.9689C101.183 51.7694 101.003 53.7153 100.505 55.5019C100.103 56.9561 99.5629 58.3826 98.2056 59.3797C97.3747 59.9961 96.6545 60.28 95.6781 60.5431C95.3388 60.6401 94.9925 60.7093 94.6463 60.7716C94.5978 60.7786 94.5701 60.7855 94.5424 60.7924C93.6145 60.9171 92.9705 61.5264 92.9082 62.5098C92.2919 72.1283 86.198 81.6153 77.3204 85.5763C77.1127 85.6663 77.265 85.6109 76.9673 85.7217C76.7041 85.8256 76.4341 85.9294 76.164 86.0195C75.5408 86.2411 74.9106 86.435 74.2735 86.5942C72.7985 86.9682 71.3097 87.1482 69.7863 87.1413C67.1756 87.1205 64.5996 86.6081 62.162 85.6871C61.6081 85.4793 61.525 85.4378 61.0748 85.237C60.7355 85.0777 60.3962 84.9115 60.0638 84.7384C59.7176 84.5583 59.3852 84.3575 59.0528 84.1567C56.9269 82.8618 55.0018 81.3868 53.2775 79.5794C49.178 75.2722 46.3735 69.5038 46.2558 63.5C46.235 62.2605 45.1755 61.6788 44.0675 61.8311C40.6328 62.302 37.5513 59.3244 36.4918 56.0281C35.8963 54.1861 35.7993 52.4272 36.3879 50.6199C36.6372 49.8443 37.1219 48.9164 37.8214 48.2654C38.0222 48.0785 38.5069 47.7599 38.7147 47.6768C38.687 47.6907 39.047 47.573 39.1717 47.5383C39.2756 47.5106 39.3794 47.4899 39.4833 47.4691C39.4972 47.4691 39.511 47.4691 39.5318 47.4691C39.7672 47.4483 40.0096 47.4483 40.245 47.4552C40.3212 47.4552 40.3974 47.4691 40.4736 47.4691C40.5013 47.4691 40.5082 47.4691 40.5289 47.4691C40.896 47.5314 41.2561 47.6145 41.6092 47.7322C41.7408 47.7738 41.8724 47.8292 42.0039 47.8707C42.087 47.9261 42.1909 47.9538 42.274 48.0023C42.3917 48.0715 42.5164 48.12 42.6341 48.1546C42.641 48.4524 42.6549 48.7502 42.6549 49.0479C42.6895 51.2708 46.1519 51.2777 46.1173 49.0479C46.0757 46.2503 45.7503 43.4527 45.8888 40.6551C45.9718 38.8477 46.2211 37.2134 46.5951 35.4407C47.4261 31.5143 48.7625 27.6364 50.8746 24.2017C51.9064 22.519 53.2429 20.8155 54.7733 19.6729C55.5212 19.112 55.902 18.1772 55.3965 17.3046C55.3619 17.2492 55.3203 17.1938 55.2788 17.1454C53.8661 18.1079 52.6197 19.3267 51.9203 21.0856C52.6266 19.3267 53.8661 18.101 55.2788 17.1454C54.7802 16.5083 53.7276 16.169 53.0282 16.6883C49.4827 19.3336 47.1975 23.163 45.5217 27.1933C43.8875 31.1265 42.8626 35.3438 42.4956 39.5887C42.3571 41.1814 42.3917 42.781 42.461 44.3737C41.6092 44.1106 40.709 43.9651 39.8503 43.9859C39.2202 43.9998 38.6177 44.1036 38.0499 44.2837C36.6718 37.5251 37.9114 30.6141 40.7644 24.3749C43.5551 18.2672 47.8415 12.5057 53.2844 8.51013C56.2483 6.33574 59.5445 4.69457 63.1938 4.09211C63.914 3.97439 64.3849 3.24728 64.4472 2.54095C63.547 2.67945 62.626 2.83872 61.615 3.08801C62.6329 2.83179 63.5539 2.67252 64.4472 2.54095C64.4611 2.34013 64.4542 2.14624 64.4057 1.96619C64.1356 0.989796 63.2008 0.602007 62.2728 0.754353C55.0849 1.94542 48.8595 6.86896 44.3168 12.3396C39.6287 17.9833 36.3394 24.5618 34.7398 31.729C33.7288 36.2647 33.7911 40.7936 34.7398 45.3362C34.8021 45.6271 34.9545 45.8695 35.1553 46.0703C34.5182 46.7212 33.985 47.4968 33.5834 48.3555C31.3813 53.0851 32.8563 59.1097 36.6788 62.5859C38.4654 64.2133 40.5982 65.1135 42.8972 65.2451C43.5551 72.3984 47.3845 79.2816 52.8828 84.039C52.9036 83.3673 52.8343 82.7025 52.6058 82.0308C52.8274 82.7025 52.8967 83.3673 52.8828 84.039C54.8841 85.7702 57.1 87.2244 59.4752 88.2977C64.9527 90.7699 71.2474 91.4001 76.9811 89.4057C80.0627 88.3324 82.8949 86.6358 85.3809 84.5168C86.3365 90.3475 89.4319 95.6311 94.0369 99.4259C93.9123 99.6613 93.843 99.9383 93.8569 100.278C93.9123 101.628 93.9746 102.978 94.03 104.329C93.9954 104.349 93.9607 104.356 93.933 104.384C90.6645 106.538 87.1537 108.297 83.442 109.446C83.4558 106.752 83.4766 104.066 83.4904 101.372C83.5043 98.8719 84.086 95.4649 81.3784 94.1007C80.3743 93.5952 79.3148 93.6714 78.2414 93.6714H61.248C58.9282 93.6714 56.5876 93.5814 54.2608 93.6714C53.6722 93.6922 53.139 93.8237 52.6612 94.0453C53.9146 92.0441 54.711 89.7935 54.9464 87.3629C55.0364 86.428 54.0877 85.6317 53.2152 85.6317C53.0144 85.6317 52.8413 85.6732 52.6751 85.7286C51.9826 85.9571 51.5602 86.615 51.484 87.3629C51.3524 88.7201 50.84 90.3059 50.1683 91.5178C49.3719 92.9512 48.534 93.9484 47.3083 95.084C46.1727 96.1297 45.0647 96.9191 43.659 97.7501C42.9803 98.1517 42.2948 98.5257 41.5884 98.8719C41.2561 99.0381 40.9237 99.1904 40.5913 99.3428C40.4251 99.419 40.2589 99.4951 40.0927 99.5644C39.9819 99.6129 39.8711 99.6613 39.7603 99.7098C39.8988 99.6475 39.8711 99.6613 39.6772 99.7444C39.1301 99.973 38.68 100.375 38.5 100.894C38.3961 101.192 38.3753 101.517 38.4723 101.877C38.6939 102.694 39.7326 103.442 40.6051 103.089C41.3599 102.778 42.1078 102.445 42.8488 102.092C42.7103 105.208 42.5648 108.331 42.4263 111.447C42.0386 111.731 41.6923 112.064 41.4153 112.465C40.896 113.206 40.6121 114.217 40.2797 115.055C39.9819 115.81 39.6772 116.558 39.3794 117.313C39.144 115 38.8254 112.694 38.5069 110.388C38.0983 107.417 37.6621 104.446 37.2258 101.483C36.8103 98.6503 36.3948 95.8181 36.0071 92.9789C35.9932 92.8958 35.9863 92.8058 35.9724 92.7227C35.9655 92.6604 35.9517 92.5634 35.9447 92.5219C35.917 92.328 35.8963 92.1341 35.8686 91.9402C35.8132 91.4831 35.7647 91.0261 35.7093 90.5691C35.4738 88.7132 34.9822 86.705 33.3202 85.604C31.7414 84.5653 29.3662 84.6622 27.8358 85.7494C26.3747 86.795 25.5852 88.6094 25.7099 90.3959C25.9384 93.7614 26.3816 97.1269 26.7209 100.478C26.9079 102.348 27.0948 104.211 27.2749 106.081C27.4618 107.971 27.6488 109.862 27.8358 111.745C27.1849 111.911 26.5478 112.251 25.9661 112.791C25.2528 113.449 24.7542 114.287 24.4565 115.201C23.6809 114.903 22.8361 114.799 21.9705 114.924C20.3639 115.159 19.0205 116.17 18.3003 117.624C18.238 117.749 18.1965 117.867 18.148 117.984C17.6148 117.839 17.0539 117.77 16.4722 117.77C14.2562 117.784 12.3727 119.113 11.4101 121.017C11.4863 120.844 11.5556 120.678 11.6248 120.519C11.9018 119.903 12.2065 119.3 12.5389 118.711C12.6843 118.448 12.8436 118.192 13.0029 117.943C13.079 117.825 13.1621 117.7 13.2383 117.583C13.266 117.541 13.4183 117.333 13.4737 117.257C13.5291 117.188 13.6399 117.056 13.6676 117.022C13.7646 116.911 13.8615 116.8 13.9654 116.689C14.1801 116.468 14.4086 116.26 14.644 116.059C15.6481 115.214 16.7492 114.48 17.871 113.788C20.4262 112.216 23.1408 110.928 25.8968 109.765C26.7555 109.398 26.9494 108.13 26.5201 107.396C26.3539 107.119 26.1461 106.925 25.9038 106.787C25.3844 106.496 24.7404 106.524 24.1518 106.773C21.6658 107.826 19.2213 108.975 16.8877 110.339C15.018 111.434 13.0236 112.666 11.514 114.245C9.49198 116.371 8.31476 119.224 7.35221 121.945C4.81081 129.106 3.64744 136.744 2.29711 144.195C1.63925 147.837 1.01602 151.507 0.0603937 155.087C0.00499527 155.302 -0.00885434 155.496 0.00499527 155.69H3.47432C5.1986 149.091 6.0642 142.27 7.40761 135.594C8.13472 131.966 8.93799 128.344 10.039 124.812C10.2468 124.147 10.4753 123.49 10.7038 122.832C10.4407 124.037 10.5999 125.415 10.7038 126.606C10.9185 128.946 11.2786 131.273 11.6456 133.593C12.4489 138.662 13.4322 143.821 13.9446 148.696C14.0623 149.818 14.1593 150.946 14.187 152.075C14.2008 152.546 14.2008 153.024 14.1731 153.495C14.1662 153.703 14.1385 153.903 14.1247 154.111C14.1247 154.139 14.1247 154.146 14.1247 154.166C14.1177 154.201 14.1039 154.243 14.09 154.333C14 154.817 14.0762 155.309 14.3116 155.704H17.2408C17.3239 155.565 17.3932 155.42 17.4278 155.254C17.7671 153.481 17.6702 151.66 17.5178 149.88C17.3032 147.346 16.9361 144.818 16.5484 142.304C16.1467 139.673 15.6966 137.055 15.2673 134.431C15.0664 133.198 14.8656 131.959 14.6787 130.719C14.4848 129.417 14.4086 128.877 14.2701 127.644C14.1662 126.689 14.0693 125.733 14.0554 124.771C14.0485 124.404 14.0693 124.044 14.0831 123.677C14.0831 123.656 14.0831 123.656 14.0831 123.642C14.0831 123.642 14.0831 123.642 14.0831 123.628C14.1247 123.51 14.1385 123.379 14.1801 123.254C14.187 123.226 14.187 123.199 14.1939 123.171C14.2632 123.06 14.3255 122.936 14.367 122.79C14.6717 121.897 15.4958 121.274 16.4376 121.246C17.1854 121.218 17.8641 121.405 18.1965 121.987C18.2865 122.215 18.3834 122.444 18.4942 122.679C18.5011 122.7 18.515 122.714 18.5288 122.735C18.9028 123.4 19.256 124.071 19.6022 124.75C19.7545 125.048 19.9 125.345 20.0454 125.643C20.1562 125.879 20.4401 126.266 20.4539 126.53C20.4539 126.53 20.3224 126.204 20.3916 126.377C20.4193 126.446 20.447 126.516 20.4747 126.578C20.5163 126.689 20.5647 126.8 20.5994 126.917C20.6894 127.181 20.7656 127.444 20.821 127.721C20.821 127.748 20.8279 127.769 20.8348 127.797C20.8348 127.908 20.8625 128.053 20.8694 128.157C20.8764 128.385 20.7933 128.752 20.8417 128.974C20.8417 128.988 20.8417 129.002 20.8348 129.016C20.8071 129.147 20.7725 129.279 20.7309 129.41C20.724 129.431 20.7171 129.459 20.7032 129.48C20.6617 129.549 20.5994 129.66 20.5578 129.729C20.544 129.743 20.5301 129.757 20.5232 129.77C20.5093 129.784 20.5024 129.791 20.4886 129.805C20.4747 129.819 20.4401 129.833 20.4055 129.853C20.3847 129.86 20.357 129.867 20.3362 129.874C20.3501 129.874 20.357 129.874 20.3708 129.874C20.3708 129.874 20.3847 129.874 20.3916 129.867C20.3916 129.867 20.3847 129.867 20.3778 129.874C20.3916 129.874 20.4055 129.874 20.4124 129.888C20.4124 129.888 20.3847 129.888 20.3501 129.888H20.3362C20.3362 129.888 20.3362 129.888 20.3431 129.888C20.3293 129.888 20.3085 129.888 20.2947 129.888C20.1354 129.944 20.1839 129.916 20.2739 129.888C20.1977 129.888 20.1146 129.895 20.0454 129.895C20.0177 129.888 19.9969 129.881 19.9692 129.874C19.9484 129.867 19.9277 129.853 19.9138 129.847C19.9207 129.847 19.8653 129.819 19.8099 129.784C19.8723 129.84 19.9138 129.895 19.7753 129.763C19.7476 129.743 19.7268 129.729 19.7268 129.729C19.7268 129.729 19.7407 129.729 19.7476 129.729C19.623 129.611 19.5052 129.5 19.3944 129.369C19.3391 129.306 19.2906 129.244 19.2352 129.182C19.0551 128.877 18.8266 128.586 18.6396 128.282C18.2796 127.693 17.9541 127.077 17.5732 126.502C17.0746 125.747 16.0221 125.352 15.2049 125.879C14.4571 126.363 14.0485 127.444 14.5817 128.247C15.4404 129.535 16.0705 130.982 17.1993 132.069C18.1203 132.956 19.3598 133.42 20.5855 133.309C20.6686 133.482 20.7725 133.641 20.911 133.794C22.4414 135.373 23.5701 136.758 24.7404 138.544C25.9107 140.331 26.9148 142.221 27.7458 144.181C28.0989 145.019 29.4008 145.261 30.114 144.804C30.9866 144.243 31.1112 143.329 30.7373 142.436C29.0961 138.565 26.7624 135.006 23.9025 131.931C24.3595 132.069 24.8304 132.159 25.329 132.18C26.6239 132.229 27.8635 131.723 28.8191 130.878C29.5808 130.207 30.0448 129.3 30.2733 128.323C30.5018 128.372 30.7304 128.406 30.9727 128.42C31.963 128.455 33.064 128.108 33.9296 127.582C34.0473 127.506 34.1651 127.43 34.2759 127.347C36.3741 125.809 36.6372 122.839 35.9447 120.505C35.2799 118.282 34.4282 115.955 33.0917 114.044C32.6139 113.359 32.0114 112.791 31.3397 112.375C30.6403 105.34 29.9409 98.2972 29.2415 91.2615C29.2 90.8461 29.1307 90.4306 29.1446 90.0151C29.1515 89.565 29.2623 89.1495 29.5324 88.8171C29.7747 88.5124 30.211 88.3047 30.855 88.3601C31.9006 88.4432 32.1153 89.7242 32.2607 90.7837C32.3854 91.7324 32.4893 92.6811 32.6208 93.6298C33.3687 99.1281 34.2274 104.606 34.996 110.097C35.363 112.715 35.737 115.332 36.0001 118.123C36.0832 118.988 36.0763 119.875 36.3048 120.72C36.5887 121.751 36.8657 122.776 37.1496 123.808C37.3505 124.542 38.0568 125.082 38.8185 125.082C39.6357 125.082 40.2035 124.528 40.4874 123.808C41.2976 121.786 42.1009 119.771 42.9111 117.749C43.3196 116.731 43.7282 115.713 44.1368 114.695C44.1368 114.681 44.1437 114.674 44.1506 114.66C44.1852 114.612 44.2753 114.453 44.3099 114.383C44.3584 114.328 44.4276 114.252 44.4484 114.231C44.4553 114.224 44.4553 114.224 44.4484 114.224C44.4692 114.217 44.483 114.21 44.5107 114.197C44.6007 114.155 44.7254 114.093 44.76 114.079C44.8639 114.051 44.9747 114.016 45.0786 113.989C45.1132 113.982 45.1339 113.975 45.1547 113.968C45.1478 113.968 45.1409 113.975 45.1547 113.975C45.314 113.975 45.4802 113.975 45.6395 113.975C45.6602 113.975 45.6741 113.975 45.6879 113.975C45.7018 113.975 45.7087 113.982 45.7295 113.989C45.8888 114.03 46.048 114.072 46.2073 114.12C46.235 114.127 46.2073 114.113 46.1934 114.1C46.2142 114.113 46.2488 114.134 46.3112 114.169C46.422 114.238 46.5328 114.307 46.6436 114.377C46.6782 114.411 46.7682 114.487 46.8167 114.536C46.8167 114.536 46.8513 114.57 46.8721 114.598C46.9067 114.64 46.9413 114.695 46.9552 114.709C46.9898 114.764 47.0937 114.993 47.1144 115.021C47.156 115.145 47.1975 115.277 47.2252 115.401C47.2391 115.471 47.2529 115.505 47.2529 115.519C47.2529 115.526 47.246 115.554 47.2529 115.658C47.2529 115.831 47.2529 116.122 47.246 116.225C47.1283 117.403 46.7336 118.781 46.4566 119.999C45.4871 124.203 44.3861 128.351 43.6451 132.61C42.8626 137.09 42.1355 142.097 39.2063 145.739C38.9986 145.995 38.7839 146.245 38.5554 146.487C38.4584 146.591 38.3823 146.695 38.313 146.798C38.133 146.93 37.9806 147.103 37.8837 147.318C36.9904 149.215 36.104 151.12 35.2107 153.017C35.0861 153.287 34.9614 153.557 34.8298 153.82C34.629 154.25 34.5251 154.679 34.6567 155.157C34.7052 155.344 34.8021 155.531 34.9268 155.704H37.7383C37.766 155.662 37.8006 155.621 37.8214 155.572C38.7147 153.675 39.601 151.77 40.4943 149.873C40.619 149.603 40.7436 149.333 40.8752 149.07C40.8752 149.063 40.8752 149.049 40.889 149.042C40.9306 149.007 40.9721 148.98 41.0068 148.938C44.6354 145.095 45.8611 139.867 46.7613 134.819C47.1975 132.381 47.613 129.944 48.1739 127.534C48.7002 125.276 49.3096 123.046 49.829 120.789C49.9952 120.055 50.2029 119.293 50.3691 118.525V122.936C49.6281 123.642 49.1988 124.584 49.1226 125.706C49.0326 127 49.5935 128.122 50.3691 129.106C50.93 129.819 51.5186 130.511 52.128 131.19C51.1031 132.561 50.8331 134.452 51.4355 136.107C51.7471 136.958 52.2873 137.741 52.8967 138.468C52.862 138.523 52.8205 138.572 52.7928 138.627C50.8123 142.644 53.5545 146.293 56.1167 149.257C58.0072 151.438 59.9323 153.585 61.9751 155.635C62.0028 155.662 62.0374 155.683 62.0651 155.711H64.2533C64.9597 155.115 65.2644 154.035 64.4265 153.19C62.6676 151.424 60.9918 149.582 59.3506 147.706C59.1844 147.512 59.0182 147.325 58.852 147.131C57.9171 146.071 56.9961 144.998 56.2898 143.772C55.9366 143.17 55.6943 142.637 55.5627 141.93C55.5419 141.82 55.535 141.702 55.5281 141.577C55.5281 141.501 55.535 141.425 55.5419 141.349C56.5876 142.526 57.5778 143.738 58.6096 144.929C60.1677 146.722 61.8643 148.377 63.5401 150.053C65.1189 151.632 67.5634 149.181 65.9915 147.602C64.558 146.168 63.1038 144.749 61.7466 143.246C61.3034 142.754 60.881 142.242 60.4585 141.73C59.7245 140.836 58.9974 139.936 58.208 139.084C57.2385 138.046 55.9713 136.771 55.2442 135.809C55.0503 135.553 54.8771 135.283 54.7179 135.006C54.7179 134.992 54.7179 134.992 54.7179 134.978C54.711 134.936 54.614 134.604 54.6279 134.652C54.5863 134.403 54.5863 134.126 54.6417 133.87C54.6486 133.877 54.6625 133.891 54.6694 133.898C55.5281 134.777 56.4075 135.65 57.287 136.501C59.8838 139.015 62.5775 141.439 65.299 143.821C66.0469 144.479 66.8017 145.13 67.5565 145.774C68.2628 146.383 69.3084 146.473 70.0078 145.774C70.548 145.233 70.6865 144.25 70.2502 143.599C70.181 143.502 70.1048 143.405 70.0078 143.329C66.5801 140.386 63.2077 137.374 59.9461 134.244C58.3465 132.707 56.7676 131.135 55.2719 129.486C54.5863 128.732 53.9354 127.956 53.2775 127.181C52.7443 126.55 52.5504 126.211 52.682 125.56C53.6307 124.805 54.3924 125.532 55.3411 126.384C56.5668 127.478 57.8133 128.552 59.0597 129.618C61.7258 131.889 64.4195 134.126 67.0302 136.46C68.429 137.706 69.8417 139.188 71.8568 139.167C73.858 139.154 75.4923 137.554 75.3122 135.518C75.1599 133.773 73.7957 132.395 72.757 131.072C69.9524 127.499 67.1479 123.933 64.3503 120.36C63.6924 119.522 63.0276 118.684 62.3698 117.839C61.8435 117.16 61.248 116.412 61.0956 115.547C61.151 115.858 61.1233 114.896 61.0748 115.221C61.1025 115.055 61.1579 114.896 61.2064 114.73C61.3934 114.584 61.2064 114.605 61.5042 114.543C61.3034 114.584 61.9197 114.543 61.9058 114.543C62.0305 114.557 62.1759 114.598 62.2936 114.64C63.0761 114.937 63.6509 115.768 64.2049 116.357C70.2641 122.804 76.3994 129.182 82.4587 135.629C82.5417 135.719 82.6248 135.802 82.7079 135.892C84.2383 137.519 86.6828 135.068 85.1593 133.441C84.4876 132.727 83.8159 132.028 83.1442 131.315C83.2758 131.086 83.3589 130.809 83.3589 130.484C83.3589 129.306 83.3727 128.136 83.3796 126.959C85.4017 129.175 87.4237 131.405 89.2034 133.801C89.1965 133.801 89.3904 134.078 89.4319 134.14C89.515 134.278 89.5981 134.417 89.6674 134.555C89.7643 134.742 89.8543 134.936 89.9444 135.13C89.9928 135.255 90.0413 135.379 90.0898 135.504C90.4637 136.522 90.7407 137.575 90.9692 138.634C91.9387 143.045 92.2503 147.512 92.4581 152.158C92.5065 153.287 92.5481 154.423 92.5619 155.558C92.5619 155.607 92.5758 155.648 92.5758 155.697H96.0105C96.0105 155.648 96.0243 155.607 96.0243 155.558C95.9897 152.387 95.8027 149.215 95.5119 146.058C95.2695 143.44 94.951 140.815 94.4247 138.239C94.0092 136.231 93.4968 134.036 92.3611 132.298C91.3501 130.74 90.0205 129.32 88.8087 127.915C87.9015 126.862 86.9805 125.823 86.0526 124.785C85.374 124.023 84.6884 123.261 84.0029 122.499C83.8159 122.292 83.6151 122.153 83.4073 122.063C83.4281 119.065 83.442 116.073 83.4627 113.075C83.9475 112.943 84.4253 112.805 84.9031 112.652C88.1855 111.607 91.3085 110.111 94.2447 108.317C94.4593 113.359 94.674 118.4 94.8887 123.441C93.0813 123.379 91.2739 123.316 89.4665 123.247C88.4763 123.213 87.9292 123.877 87.8184 124.632C87.6799 125.574 88.227 126.668 89.4665 126.71C91.8764 126.793 94.2862 126.883 96.6961 126.966C97.6032 127 98.4688 126.149 98.4273 125.235C98.0949 117.417 97.7625 109.592 97.4301 101.773C99.0782 102.757 100.796 103.595 102.548 104.46C102.942 104.654 103.33 104.855 103.725 105.049C103.434 105.464 103.33 106.004 103.42 106.545C105.726 119.639 107.277 132.859 109.237 146.009C109.722 149.243 110.227 152.47 110.788 155.69H114.257C114.257 155.579 114.243 155.468 114.223 155.358C111.917 142.263 110.366 129.043 108.406 115.893C107.949 112.825 107.464 109.758 106.938 106.697C108.849 107.694 110.746 108.719 112.623 109.799C115.441 111.42 118.488 113.089 120.919 115.263C121.217 115.526 121.487 115.817 121.743 116.122C121.812 116.205 121.882 116.288 121.951 116.371C121.958 116.385 121.965 116.392 121.979 116.412C122.145 116.648 122.311 116.883 122.47 117.126C123.059 118.04 123.564 119.009 124.014 119.993C124.499 121.052 124.942 122.181 125.386 123.455C125.849 124.785 126.272 126.121 126.66 127.471C127.525 130.477 128.252 133.517 128.924 136.571C130.302 142.886 131.348 149.257 132.615 155.593C132.615 155.628 132.636 155.655 132.65 155.69H135.904C136.008 155.371 136.029 155.025 135.96 154.679L135.856 154.651ZM39.4348 47.4483C39.331 47.4622 39.3517 47.4552 39.4348 47.4483V47.4483ZM10.9739 121.932C10.9739 121.932 10.9739 121.932 10.9739 121.925V121.932ZM20.5093 129.77C20.537 129.763 20.544 129.763 20.5093 129.77V129.77ZM20.6063 129.611C20.6063 129.611 20.6063 129.59 20.6201 129.57C20.6132 129.597 20.6063 129.611 20.6063 129.611ZM26.9009 127.34C26.9009 127.34 26.9009 127.361 26.9009 127.367C26.9009 127.437 26.8802 127.492 26.8663 127.478C26.8525 127.548 26.8386 127.61 26.8178 127.679C26.8178 127.693 26.8109 127.707 26.804 127.721C26.7209 127.859 26.6309 128.011 26.5616 128.15C26.4993 128.212 26.4439 128.282 26.3746 128.337C26.3954 128.323 26.4162 128.316 26.4439 128.295C26.4093 128.316 26.3677 128.344 26.3331 128.365C26.347 128.358 26.3608 128.344 26.3746 128.33C26.1808 128.441 26.1877 128.455 26.25 128.42C26.2223 128.441 26.2015 128.455 26.1738 128.469C26.1184 128.503 26.0561 128.531 25.9938 128.565C25.9176 128.593 25.8345 128.614 25.7514 128.635C25.7306 128.635 25.7099 128.642 25.6822 128.649C25.4952 128.649 25.3082 128.649 25.1282 128.649C25.1143 128.649 25.0936 128.649 25.0797 128.642C24.962 128.614 24.8373 128.579 24.7196 128.545C24.6988 128.538 24.6711 128.531 24.6504 128.524C24.5465 128.462 24.4357 128.413 24.3318 128.351C24.3318 128.351 24.318 128.344 24.3111 128.337C24.3111 126.779 23.7501 125.401 23.0923 124.009C22.5937 122.949 22.0466 121.904 21.4719 120.886C21.4096 120.74 21.3542 120.588 21.2849 120.45C21.1049 119.937 21.0841 119.487 21.4373 118.961C21.7558 118.483 22.1505 118.261 22.6976 118.275C24.0895 118.324 24.6434 120.263 25.1143 121.378C25.1836 121.537 25.2667 121.689 25.3636 121.828C25.3706 121.862 25.3706 121.904 25.3844 121.938C25.6406 122.749 26.0076 123.517 26.3608 124.293C26.3816 124.341 26.4023 124.39 26.4162 124.445C26.4785 124.618 26.5339 124.798 26.5824 124.972C26.6447 125.186 26.6932 125.408 26.7347 125.629C26.7624 125.761 26.7832 125.886 26.804 126.017C26.8178 126.1 26.8317 126.176 26.8455 126.26C26.8455 126.301 26.8871 126.592 26.8594 126.356C26.8317 126.114 26.8871 126.585 26.894 126.661C26.9079 126.779 26.9079 126.897 26.9079 127.014C26.9079 127.097 26.9079 127.181 26.9009 127.264C26.9079 127.236 26.9148 127.208 26.9286 127.181C26.9148 127.229 26.9079 127.284 26.9009 127.333V127.34ZM30.7719 116.821C31.0766 117.396 31.312 117.957 31.4436 118.254C31.8106 119.12 32.1361 120.124 32.4477 121.052C32.7108 121.841 32.877 122.7 32.7316 123.49C32.7316 123.503 32.7316 123.517 32.7247 123.538C32.5931 124.224 32.3854 124.508 31.7206 124.764C31.4298 124.875 31.0073 124.937 30.9866 124.937C30.5642 124.84 30.2595 124.452 29.9548 124.099C29.9409 124.085 29.9271 124.078 29.9132 124.064C29.8717 123.912 29.8301 123.76 29.7817 123.607C29.6016 123.102 29.38 122.617 29.1515 122.132C29.103 122.028 29.0545 121.925 29.0061 121.821C28.9091 121.558 28.8122 121.301 28.7291 121.038C28.6737 120.858 28.5767 120.692 28.4729 120.533C28.4729 120.512 28.4729 120.491 28.459 120.47C27.9466 119.016 26.6447 116.399 28.3828 115.201C29.3177 114.557 30.1971 115.706 30.7927 116.821H30.7719ZM50.2999 113.802C50.2445 113.643 50.1821 113.49 50.106 113.338C49.3165 111.683 47.6546 110.699 45.868 110.506C45.9234 109.342 45.9719 108.179 46.0272 107.015C47.433 107.659 48.8595 108.283 50.2999 108.885V113.809V113.802ZM50.2999 97.9371V105.139C49.0049 104.578 47.7169 104.003 46.4358 103.401C46.3596 103.366 46.2765 103.338 46.1934 103.311C46.2142 102.847 46.235 102.39 46.2558 101.926C46.2835 101.372 46.3042 100.811 46.3319 100.257C46.3319 100.208 46.325 100.16 46.3181 100.111C47.5646 99.3082 48.7487 98.4149 49.8428 97.3831C50.0506 97.1892 50.2375 96.9814 50.4314 96.7806C50.3414 97.1476 50.2929 97.5354 50.2929 97.9371H50.2999ZM71.8637 135.65C71.9329 135.546 72.0714 135.601 71.8637 135.65V135.65ZM79.9865 100.222L79.9242 110.492C79.8895 116.288 79.8549 122.077 79.8203 127.873C77.9921 125.941 76.164 124.009 74.3289 122.077C72.4939 120.145 70.6657 118.22 68.8376 116.281C68.0204 115.422 67.2102 114.557 66.4 113.691C65.479 112.715 64.5927 111.801 63.2977 111.33C60.9225 110.457 58.2288 111.614 57.6678 114.176C57.1485 116.544 58.4573 118.49 59.8492 120.27C61.0195 121.765 62.1897 123.254 63.367 124.743C63.7617 125.248 64.1633 125.754 64.558 126.26L69.1353 132.09C69.7932 132.928 70.451 133.766 71.1089 134.604C71.2474 134.777 71.3928 134.95 71.5244 135.13C71.5313 135.151 71.5452 135.172 71.559 135.206C71.6352 135.366 71.7044 135.504 71.7737 135.663C71.7737 135.663 71.7737 135.663 71.7667 135.663C71.7667 135.663 71.5867 135.622 71.6975 135.663C71.1851 135.449 70.7834 135.206 70.361 134.826C69.6478 134.188 68.9414 133.551 68.2282 132.921C66.4554 131.377 64.6619 129.867 62.8753 128.344C61.5042 127.181 60.1331 126.003 58.7758 124.819C58.4642 124.549 58.1526 124.279 57.8479 124.009C56.636 122.929 55.2857 121.911 53.7692 121.717V99.7375C53.7692 99.052 53.6515 98.2418 53.7692 97.5631C53.8731 96.9537 54.5171 97.0992 55.0503 97.0992H58.8381C65.6383 97.0992 72.4662 96.9191 79.2663 97.0992C79.758 97.113 79.9796 97.2169 80.0003 97.7363C80.035 98.5534 79.9934 99.3843 79.9865 100.201V100.222ZM89.8682 135.137C89.9028 135.22 89.9444 135.31 89.8682 135.137V135.137ZM125.559 115.671C125.302 115.263 125.039 114.854 124.748 114.467C123.066 112.23 120.635 110.706 118.301 109.211C115.068 107.14 111.695 105.284 108.295 103.512C105.352 101.981 102.243 100.679 99.3898 98.9966C93.1021 95.2918 88.7394 88.7963 88.504 81.4145C88.504 81.4006 88.504 81.3868 88.504 81.366C88.5663 81.2898 88.6356 81.2275 88.6979 81.1513C89.8543 79.7871 90.8931 78.326 91.8141 76.7956C91.9595 76.761 92.1118 76.7195 92.2572 76.6433C96.5645 74.4897 101.661 76.6364 105.324 79.1293C106.966 80.2511 108.648 81.643 109.763 83.2357C110.871 84.8146 111.501 86.3796 112.007 88.2146C113.025 91.954 113.198 95.8596 114.091 99.6267C115.047 103.671 116.993 107.258 120.365 109.772C122.858 111.627 125.967 112.805 129.097 112.251C129.776 112.133 130.427 111.911 131.043 111.607C130.136 113.282 128.564 114.57 126.618 114.834C126.147 114.896 125.787 115.235 125.572 115.658L125.559 115.671Z" fill="#483A37"/>
</svg>
