<svg width="353" height="21" viewBox="0 0 353 21" fill="none" xmlns="http://www.w3.org/2000/svg">
<path id="Line 6" d="M353 10.3452L335.081 -0.000208822L335.081 20.6906L353 10.3452ZM0 10.3452L0 12.1371L3.53 12.1371L3.53 10.3452L3.53 8.55333L0 8.55333L0 10.3452ZM10.59 10.3452L10.59 12.1371L17.65 12.1371L17.65 10.3452L17.65 8.55333L10.59 8.55333L10.59 10.3452ZM24.71 10.3452L24.71 12.1371L31.77 12.1371L31.77 10.3452L31.77 8.55333L24.71 8.55333L24.71 10.3452ZM38.83 10.3452L38.83 12.1371L45.89 12.1371L45.89 10.3452L45.89 8.55333L38.83 8.55333L38.83 10.3452ZM52.95 10.3452L52.95 12.1371L60.01 12.1371L60.01 10.3452L60.01 8.55333L52.95 8.55333L52.95 10.3452ZM67.07 10.3452L67.07 12.1371L74.13 12.1371L74.13 10.3452L74.13 8.55333L67.07 8.55333L67.07 10.3452ZM81.19 10.3452L81.19 12.1371L88.25 12.1371L88.25 10.3452L88.25 8.55333L81.19 8.55333L81.19 10.3452ZM95.31 10.3452L95.31 12.1371L102.37 12.1371L102.37 10.3452L102.37 8.55333L95.31 8.55333L95.31 10.3452ZM109.43 10.3452L109.43 12.1371L116.49 12.1371L116.49 10.3452L116.49 8.55333L109.43 8.55333L109.43 10.3452ZM123.55 10.3452L123.55 12.1371L130.61 12.1371L130.61 10.3452L130.61 8.55333L123.55 8.55333L123.55 10.3452ZM137.67 10.3452L137.67 12.1371L144.73 12.1371L144.73 10.3452L144.73 8.55333L137.67 8.55333L137.67 10.3452ZM151.79 10.3452L151.79 12.1371L158.85 12.1371L158.85 10.3452L158.85 8.55333L151.79 8.55333L151.79 10.3452ZM165.91 10.3452L165.91 12.1371L172.97 12.1371L172.97 10.3452L172.97 8.55333L165.91 8.55333L165.91 10.3452ZM180.03 10.3452L180.03 12.1371L187.09 12.1371L187.09 10.3452L187.09 8.55333L180.03 8.55333L180.03 10.3452ZM194.15 10.3452L194.15 12.1371L201.21 12.1371L201.21 10.3452L201.21 8.55333L194.15 8.55333L194.15 10.3452ZM208.27 10.3452L208.27 12.1371L215.33 12.1371L215.33 10.3452L215.33 8.55333L208.27 8.55333L208.27 10.3452ZM222.39 10.3452L222.39 12.1371L229.45 12.1371L229.45 10.3452L229.45 8.55333L222.39 8.55333L222.39 10.3452ZM236.51 10.3452L236.51 12.1371L243.57 12.1371L243.57 10.3452L243.57 8.55333L236.51 8.55333L236.51 10.3452ZM250.63 10.3452L250.63 12.1371L257.69 12.1371L257.69 10.3452L257.69 8.55333L250.63 8.55333L250.63 10.3452ZM264.75 10.3452L264.75 12.1371L271.81 12.1371L271.81 10.3452L271.81 8.55333L264.75 8.55333L264.75 10.3452ZM278.87 10.3452L278.87 12.1371L285.93 12.1371L285.93 10.3452L285.93 8.55333L278.87 8.55333L278.87 10.3452ZM292.99 10.3452L292.99 12.1371L300.05 12.1371L300.05 10.3452L300.05 8.55333L292.99 8.55333L292.99 10.3452ZM307.11 10.3452L307.11 12.1371L314.17 12.1371L314.17 10.3452L314.17 8.55333L307.11 8.55333L307.11 10.3452ZM321.23 10.3452L321.23 12.1371L328.29 12.1371L328.29 10.3452L328.29 8.55333L321.23 8.55333L321.23 10.3452ZM335.35 10.3452L335.35 12.1371L342.41 12.1371L342.41 10.3452L342.41 8.55333L335.35 8.55333L335.35 10.3452Z" fill="#1A9C5D"/>
</svg>
