<svg width="24" height="29" viewBox="0 0 24 29" fill="none" xmlns="http://www.w3.org/2000/svg">
<g id="Group">
<path id="Vector" d="M23.7046 15.2142C22.0897 8.77559 15.8359 6.35371 15.2888 5.76463L16.8267 0.16632C16.8267 0.16632 14.9063 -0.454246 12.2131 0.702018C8.78819 2.17254 6.88006 0.297682 6.88006 0.297682L8.57023 5.85219C8.04069 6.45527 1.38857 9.15897 0.185031 15.5214C-0.853932 20.9945 2.39684 28.8054 12.1125 28.6794C21.8289 28.5516 25.0631 20.6199 23.7046 15.2142ZM16.565 15.763V17.2895H13.4201L12.8959 18.1061V19.0794H16.565V20.6068H12.8959V23.2658H11.105V20.6068H7.43587V19.0794H11.105V18.1061L10.5799 17.2895H7.43587V15.763H9.59782L7.02537 11.7603H8.85906L12.0004 16.6479L15.1427 11.7603H16.9746L14.4031 15.763H16.565Z" fill="#FFA02D"/>
</g>
</svg>
