<svg width="27" height="39" viewBox="0 0 27 39" fill="none" xmlns="http://www.w3.org/2000/svg">
<path id="Vector" d="M26.5253 0.723698C26.5043 0.19956 26.2807 0.0877447 25.7845 0.0807562C18.9218 -0.100945 12.0311 0.0807562 5.16839 0.0807562H1.34568C0.800572 0.0807562 0.15763 -0.0660039 0.0528021 0.548985C-0.0660026 1.23386 0.0528021 2.05153 0.0528021 2.74339V24.9249C1.5763 25.1206 2.94605 26.1479 4.16904 27.2381C4.47653 27.5177 4.798 27.7832 5.10549 28.0558C6.47524 29.2578 7.85198 30.4389 9.2427 31.6129C11.0457 33.1434 12.8558 34.6739 14.6448 36.2323C15.3716 36.8613 16.0845 37.5112 16.7973 38.1542C17.2236 38.5386 17.6289 38.7762 18.1461 38.9998C18.0342 38.9509 18.209 38.9998 18.2159 38.9998C18.2159 38.9998 18.2159 38.9998 18.2229 38.9998C18.16 38.8321 18.0832 38.6993 18.0063 38.5385C17.9923 38.5036 17.9783 38.4826 17.9713 38.4617C17.8386 38.28 17.6918 38.1053 17.552 37.9305C16.8881 37.0849 16.2242 36.2393 15.5603 35.3937L10.9409 29.5094C10.5426 28.9992 10.1372 28.4891 9.73888 27.9789C8.55782 26.4764 7.36977 24.9669 6.18872 23.4643C4.78402 21.6683 3.45621 19.7115 3.98733 17.3144C4.5534 14.7287 7.27893 13.5616 9.669 14.4422C10.9758 14.9244 11.8704 15.8399 12.7998 16.8252C13.6175 17.6988 14.4422 18.5654 15.2598 19.4389C17.1048 21.3887 18.9567 23.3385 20.8017 25.2883C22.6537 27.2381 24.4916 29.1879 26.3436 31.1377C26.3785 25.2883 26.4135 19.4459 26.4484 13.5965L26.5113 3.23258C26.5113 2.40794 26.5602 1.56932 26.5253 0.744673V0.723698Z" fill="white"/>
</svg>
