<svg width="6" height="10" viewBox="0 0 6 10" fill="none" xmlns="http://www.w3.org/2000/svg">
<path id="Vector" d="M4.99327 6.08582C4.67929 5.15085 4.35135 4.13911 3.98155 3.26694C3.85595 2.96691 3.61872 2.40174 3.30474 1.82261C2.70468 0.699249 1.81854 -0.465978 0.876592 0.1899C-0.867764 1.39699 0.443992 4.03446 0.953344 5.49972C0.953344 5.52065 0.953345 5.54158 0.967299 5.56252C1.07894 5.71602 1.16964 5.89045 1.22546 6.07186C1.30919 6.33701 1.40687 6.59517 1.50456 6.85333C1.5534 6.96497 1.60224 7.06964 1.65109 7.1743C1.88134 7.66272 2.10462 8.15114 2.28603 8.66049C2.34185 8.814 2.37674 8.96749 2.4186 9.121C2.43256 9.13495 2.44651 9.14193 2.46047 9.15589C2.76747 9.51871 3.08146 9.90247 3.5001 10.0002C3.52103 10.0002 3.94666 9.93736 4.23971 9.82572C4.91652 9.56756 5.11887 9.28148 5.25144 8.59072C5.25144 8.57676 5.25144 8.56281 5.25841 8.54188C5.40494 7.74645 5.23748 6.88125 4.97234 6.08582H4.99327Z" fill="#FFEFDD"/>
</svg>
