<svg width="43" height="40" viewBox="0 0 43 40" fill="none" xmlns="http://www.w3.org/2000/svg">
<path id="Vector" d="M42.6299 35.9262C42.0192 36.2316 41.3599 36.4536 40.6799 36.5716C37.5432 37.1268 34.4273 35.9471 31.929 34.0872C28.5495 31.5612 26.5994 27.9735 25.6418 23.9207C24.7466 20.1456 24.58 16.2317 23.553 12.4843C23.0464 10.6384 22.4149 9.07697 21.3045 7.49474C20.1873 5.90558 18.5009 4.50378 16.8563 3.37956C13.1922 0.874373 8.07768 -1.26996 3.76126 0.888255C3.60858 0.96459 3.46285 1.00622 3.31712 1.04092C2.39416 2.57457 1.35322 4.03882 0.194308 5.40592C0.131851 5.48226 0.0624563 5.55166 0 5.62105C0 5.63493 0 5.64881 0 5.66963C0.242886 13.0742 4.60789 19.5766 10.909 23.2892C13.7751 24.9756 16.884 26.2802 19.8333 27.8139C23.2476 29.5904 26.6272 31.4433 29.861 33.5251C32.1928 35.0241 34.6355 36.5439 36.3218 38.7923C36.6133 39.1809 36.8839 39.5834 37.1337 39.9998C37.3489 39.5765 37.7097 39.2434 38.1816 39.174C40.1316 38.9103 41.7069 37.6195 42.616 35.9401L42.6299 35.9262Z" fill="#DB9B63"/>
</svg>
