<svg width="20" height="26" viewBox="0 0 20 26" fill="none" xmlns="http://www.w3.org/2000/svg">
<g id="Group">
<path id="Vector" d="M1.78237 1.10178C-0.00411178 2.2604 -0.35506 5.88206 0.319415 8.83381C0.844694 11.1325 1.96147 14.2159 3.84464 17.1195C5.61618 19.851 8.08775 22.3003 9.97234 23.7174C12.3924 25.537 15.8423 26.6936 17.6288 25.5349C18.5321 24.9491 19.8742 23.3484 19.9355 23.0612C19.9355 23.0612 19.1485 21.8477 18.9758 21.5814L16.3366 17.5121C16.1405 17.2097 14.9105 17.4861 14.2857 17.84C13.4429 18.3175 12.6667 19.5988 12.6667 19.5988C12.0888 19.9327 11.6048 19.6 10.5934 19.1346C9.35047 18.5627 7.95298 16.7858 6.84072 15.1764C5.82484 13.5045 4.7723 11.5038 4.75707 10.1356C4.74453 9.02241 4.63819 8.44482 5.17876 8.0533C5.17876 8.0533 6.66522 7.86714 7.44496 7.2924C8.0229 6.86624 8.77685 5.856 8.58073 5.55355L5.94154 1.48426C5.76883 1.21797 4.98183 0.00450326 4.98183 0.00450326C4.69456 -0.0566879 2.68571 0.515919 1.78237 1.10178Z" fill="#1A9C5D"/>
</g>
</svg>
