<svg width="32" height="28" viewBox="0 0 32 28" fill="none" xmlns="http://www.w3.org/2000/svg">
<g id="Group">
<path id="Vector" d="M30.9061 17.8362C31.081 17.376 30.8212 16.3355 29.5412 16.223C28.371 16.1201 27.4957 15.6617 27.4957 14.6103C27.4957 14.0103 28.1052 12.8014 29.0616 12.95C29.6991 13.0493 30.2906 12.9461 30.4395 12.2885C30.5645 11.7373 29.5202 11.0643 29.0026 11.4045C28.1024 11.9975 27.3619 10.9724 27.4318 10.4147C27.5207 9.71756 27.8445 8.96898 30.0039 8.22436C30.6024 8.01778 31.2539 7.5483 30.8153 6.83178C30.4115 6.17157 29.5572 6.33333 29.1035 6.73512C27.2729 8.35401 26.5285 8.441 25.6072 7.21509C24.8927 6.26697 24.499 6.11048 23.5268 5.52499C22.9312 5.16675 24.0044 4.2608 24.4261 3.88283C24.7318 3.61032 24.6149 3.1883 24.2013 2.99052C23.9154 2.85338 23.4398 3.11181 23.3358 3.41996C23.203 3.8186 22.9611 4.41201 22.2596 4.3628C20.6689 4.25206 20.7758 3.38345 21.4273 2.71707C21.9389 2.19355 22.5085 0.397102 21.1005 0.0569035C19.5967 -0.307049 18.9052 1.16724 18.8832 1.85736C18.8462 3.05782 17.8599 3.88283 16.9227 3.7325C16.3431 3.63974 14.2956 3.87887 13.7511 4.02568C13.2065 4.17249 12.3262 4.038 12.1213 3.50084C11.7525 2.53298 10.8133 2.60501 10.4375 2.78085C10.0608 2.95626 9.65418 3.63451 10.3037 4.38177C10.9112 5.07844 10.1848 5.50134 10.0109 5.77473C9.58618 6.44595 7.6347 6.77696 7.00814 5.23367C6.60239 4.23452 5.00065 3.15806 4.18428 4.11454C3.63166 4.76293 4.07535 6.02838 5.50427 6.44595C6.67239 6.78752 7.63163 7.5488 7.25695 8.68069C6.8902 9.78706 6.10383 9.97913 5.3194 9.63277C4.86178 9.43141 4.56897 9.74576 4.48903 9.97737C4.40809 10.209 4.57891 10.5831 4.95765 10.6714C6.31058 10.9857 6.52245 11.7506 6.56839 12.2674C6.68633 13.5883 4.78078 13.863 3.69454 13.5403C2.85317 13.2903 1.51924 13.732 1.79199 14.7364C2.06974 15.765 3.57866 15.7021 4.13022 15.4062C5.54415 14.6472 6.56939 15.9333 6.7402 16.4111C7.58457 18.7706 8.30406 19.0964 8.66175 19.4858C9.0195 19.8753 9.46512 20.5667 7.67251 21.7175C7.15095 22.0525 7.36076 22.7852 7.69251 23.0287C8.02325 23.2731 8.73869 23.4506 9.16437 22.8173C10.0657 21.4775 11.1519 21.6823 11.6765 21.9183C14.0327 22.9768 11.9802 25.5909 11.7744 26.0573C11.6325 26.379 11.5545 27.2713 12.25 27.5408C12.9025 27.7935 13.56 27.2977 13.654 26.5536C13.7219 26.0177 13.602 22.8032 15.9503 23.0683C16.3159 23.1092 17.1523 23.2687 17.1064 24.0872C17.0734 24.6872 17.3282 25.7926 18.3314 25.6827C19.3257 25.5729 19.6155 24.4366 19.3607 23.8823C18.927 22.9391 19.9262 22.6537 20.228 22.4876C21.0983 22.0089 22.3354 22.9259 22.5732 24.0138C22.7011 24.5988 23.5534 26.4239 24.9594 25.7412C26.5362 24.9755 25.0114 23.5232 24.5438 23.092C23.7873 22.394 23.2737 20.9087 24.6487 20.3527C24.9724 20.2222 25.6829 19.6512 25.9647 19.1954C26.2465 18.74 27.0689 17.3862 28.8185 18.2996C29.4932 18.6515 30.6503 18.5114 30.9061 17.8362Z" fill="#FFECCD"/>
<path id="Vector_2" d="M0.814369 11.2449C0.364685 11.2449 0 11.5658 0 11.9613C0 12.3569 0.364747 12.6774 0.814369 12.6774C1.26399 12.6774 1.62874 12.3569 1.62874 11.9613C1.62874 11.5658 1.26405 11.2449 0.814369 11.2449Z" fill="#FFECCD"/>
<path id="Vector_3" d="M4.4565 22.7002C3.92288 22.7002 3.48926 23.0809 3.48926 23.5508C3.48926 24.0202 3.92288 24.4013 4.4565 24.4013C4.99106 24.4013 5.42374 24.0202 5.42374 23.5508C5.42374 23.0809 4.99112 22.7002 4.4565 22.7002Z" fill="#FFECCD"/>
<path id="Vector_4" d="M28.0079 20.6208C27.7312 20.6208 27.5073 20.8182 27.5073 21.0617C27.5073 21.3048 27.7311 21.5026 28.0079 21.5026C28.2848 21.5026 28.5096 21.3048 28.5096 21.0617C28.5096 20.8182 28.2848 20.6208 28.0079 20.6208Z" fill="#FFECCD"/>
<path id="Vector_5" d="M31.2486 19.125C30.8329 19.125 30.4971 19.4213 30.4971 19.7865C30.4971 20.1518 30.8328 20.4481 31.2486 20.4481C31.6642 20.4481 31.9999 20.1518 31.9999 19.7865C31.9999 19.4213 31.6642 19.125 31.2486 19.125Z" fill="#FFECCD"/>
<path id="Vector_6" d="M9.30986 2.20188C9.86348 2.20188 10.3121 1.80675 10.3121 1.32013C10.3121 0.832678 9.86348 0.437988 9.30986 0.437988C8.7563 0.437988 8.30762 0.832678 8.30762 1.32013C8.30762 1.8067 8.7563 2.20188 9.30986 2.20188Z" fill="#FFECCD"/>
</g>
</svg>
