<svg width="18" height="18" viewBox="0 0 18 18" fill="none" xmlns="http://www.w3.org/2000/svg">
<g id="Group">
<path id="Vector" d="M9 0C4.0294 0 0 4.02936 0 9C0 13.9706 4.0294 18 9 18C13.9706 18 18 13.9706 18 9C18 4.02936 13.9706 0 9 0ZM13.5102 9.11939L9.22141 13.1998C8.80692 13.5944 8.15143 13.5783 7.75705 13.1635C7.36267 12.749 7.37912 12.0929 7.79333 11.6991L9.54151 10.036H5.40018C4.82776 10.036 4.36423 9.57245 4.36423 9.00004C4.36423 8.42762 4.8278 7.96433 5.40018 7.96433H9.54155L7.79337 6.30095C7.37916 5.90745 7.3627 5.25108 7.75709 4.8369C8.15147 4.42213 8.80696 4.40564 9.22145 4.80062L13.5102 8.88064C13.5428 8.91183 13.5612 8.95493 13.5612 9C13.5612 9.04507 13.5428 9.08817 13.5102 9.11939Z" fill="white"/>
</g>
</svg>
